<?xml version="1.0" standalone="no"?>
<!DOCTYPE svg PUBLIC "-//W3C//DTD SVG 20010904//EN"
 "http://www.w3.org/TR/2001/REC-SVG-20010904/DTD/svg10.dtd">
<svg version="1.0" xmlns="http://www.w3.org/2000/svg"
 width="201.000000pt" height="313.000000pt" viewBox="0 0 1024.000000 1595.000000"
 preserveAspectRatio="xMidYMid meet">

<g transform="translate(0.000000,1600.000000) scale(0.100000,-0.100000)"
fill="#000046" stroke="none">


    
<path d="M0 8000 l0 -8000 5120 0 5120 0 0 8000 0 8000 -2877 0 -2878 0 -28
-44 c-15 -24 -38 -54 -50 -67 -40 -41 -127 -150 -127 -158 0 -13 -62 -71 -92
-87 -16 -8 -28 -12 -28 -9 0 13 24 51 49 80 24 27 24 28 2 10 l-24 -20 12 23
c11 20 23 26 43 23 4 0 13 9 19 22 7 12 36 49 64 82 29 33 64 79 79 103 l26
42 -2215 0 -2215 0 0 -8000z m4807 7843 c-3 -10 -5 -4 -5 12 0 17 2 24 5 18 2
-7 2 -21 0 -30z m433 -4 c12 -23 20 -43 18 -45 -3 -2 -14 17 -26 41 -27 56
-20 60 8 4z m281 -129 c5 0 9 -9 9 -19 0 -11 5 -23 10 -26 13 -8 13 -62 0 -70
-6 -3 -13 1 -16 9 -10 25 -22 19 -29 -14 -4 -16 -11 -30 -15 -30 -5 0 -18 -20
-28 -44 -18 -39 -53 -81 -39 -45 6 16 33 101 52 169 7 25 19 72 27 105 l13 60
3 -47 c2 -27 7 -48 13 -48z m-232 10 c0 -13 -1 -13 -8 0 -5 8 -12 26 -15 40
l-7 25 15 -25 c9 -14 15 -32 15 -40z m-488 -89 c-8 -14 -8 -22 0 -26 6 -4 8
-13 5 -21 -3 -8 -1 -14 4 -14 6 0 10 -10 10 -22 0 -13 9 -34 19 -47 l18 -23
36 32 c43 38 47 30 12 -23 -30 -44 -37 -45 -60 -11 -28 42 -49 64 -63 64 -7 0
-11 4 -8 9 3 5 -1 14 -9 21 -19 15 -19 39 -2 46 8 3 20 21 28 41 11 30 15 33
17 15 2 -11 -2 -30 -7 -41z m-1026 9 c-3 -5 -11 -10 -16 -10 -6 0 -7 5 -4 10
3 6 11 10 16 10 6 0 7 -4 4 -10z m168 -15 c-3 -9 -8 -14 -10 -11 -3 3 -2 9 2
15 9 16 15 13 8 -4z m-78 -5 c-3 -5 -12 -10 -18 -10 -7 0 -6 4 3 10 19 12 23
12 15 0z m-135 -23 c0 -2 -12 -14 -27 -28 l-28 -24 24 28 c23 25 31 32 31 24z
m2080 -130 c0 -2 -11 -19 -25 -38 -28 -36 -90 -79 -115 -78 -10 0 -11 2 -2 6
6 2 10 9 7 13 -3 5 19 25 50 45 30 20 58 41 61 46 5 8 24 13 24 6z m-886 -48
c-27 -30 -38 -22 -12 9 13 16 25 25 27 20 1 -5 -5 -18 -15 -29z m-1273 -28
c17 -16 38 -27 45 -24 10 3 12 0 8 -10 -7 -19 8 -28 55 -34 20 -3 39 -10 42
-15 4 -6 28 -11 54 -12 38 -1 49 -5 51 -18 1 -10 -2 -20 -7 -24 -16 -10 -100
-13 -94 -3 12 18 -22 9 -40 -11 -11 -12 -13 -20 -6 -20 7 0 10 -4 7 -8 -2 -4
4 -13 14 -20 12 -7 21 -8 25 -2 4 6 20 17 37 26 29 15 32 15 59 -5 31 -23 39
-19 14 6 -14 14 -13 17 6 34 26 22 25 22 86 7 48 -13 80 -38 62 -49 -5 -3 0
-17 11 -31 28 -36 26 -57 -3 -30 -13 12 -27 22 -32 22 -5 0 -17 7 -27 17 -10
9 -18 11 -18 5 0 -6 3 -12 8 -14 15 -7 84 -117 80 -129 -2 -7 -12 1 -23 17
-10 16 -24 34 -30 39 -62 56 -65 55 -19 -5 67 -87 72 -96 40 -75 -15 10 -26
13 -26 6 0 -6 5 -11 11 -11 6 0 8 -8 4 -19 -4 -13 0 -20 17 -24 12 -4 25 -1
29 4 4 8 9 8 14 -1 6 -10 -20 -39 -37 -40 -4 0 -5 -7 -2 -15 5 -12 -2 -15 -29
-15 -27 0 -36 -5 -40 -21 -4 -15 -11 -20 -21 -16 -9 4 -16 1 -16 -5 0 -7 -12
-8 -32 -4 l-33 6 48 -44 c27 -26 47 -53 47 -65 0 -24 -4 -25 -31 -11 -12 7
-19 7 -19 1 0 -6 -7 -7 -17 -4 -11 4 -14 3 -9 -5 4 -7 13 -12 19 -12 16 0 71
-69 62 -78 -4 -4 -20 9 -36 28 -15 19 -29 32 -29 28 -1 -24 95 -141 122 -150
10 -4 11 -13 2 -47 -6 -23 -7 -44 -3 -47 5 -3 9 -13 9 -22 0 -11 -3 -13 -8 -6
-4 6 -17 16 -30 23 -12 7 -20 16 -17 21 3 6 1 18 -5 27 -10 16 -11 16 -5 -2 4
-14 -6 -8 -34 19 -22 22 -38 42 -36 46 2 4 -6 12 -20 18 -13 6 -41 27 -63 46
l-39 35 -34 -76 c-42 -95 -45 -103 -24 -78 16 19 17 19 12 -10 -18 -97 -18
-113 -3 -122 11 -6 17 -31 20 -86 6 -89 9 -97 40 -97 13 0 36 -10 52 -22 15
-13 25 -18 21 -11 -4 6 0 16 8 23 12 10 16 8 24 -11 l10 -24 0 24 c1 20 3 21
16 11 8 -7 12 -16 9 -21 -3 -5 11 -9 30 -9 20 0 36 -5 36 -11 0 -6 6 -9 14 -6
16 6 32 -9 38 -33 4 -20 -47 -22 -184 -9 -94 9 -110 9 -124 -5 -8 -9 -22 -16
-30 -16 -18 0 -18 -26 -1 -33 9 -3 13 -17 10 -39 -2 -18 -4 -42 -4 -53 0 -20
0 -20 -14 -1 -18 24 -30 15 -16 -12 14 -27 14 -29 -5 -36 -10 -4 -22 1 -30 11
-13 16 -14 11 -9 -37 3 -30 10 -59 16 -66 5 -6 7 -18 4 -25 -6 -15 9 -38 61
-95 34 -37 51 -42 60 -19 10 24 31 18 71 -20 41 -39 48 -39 34 -2 -9 22 -7 24
10 20 11 -3 27 -18 36 -34 10 -16 21 -29 26 -29 4 0 5 5 2 10 -3 6 -3 10 0 10
3 0 11 -14 17 -31 7 -20 13 -27 18 -19 11 17 60 -51 60 -83 0 -14 12 -40 26
-57 32 -37 45 -32 15 6 -26 33 -27 44 -3 44 15 0 18 7 16 38 -2 20 0 27 2 15
6 -25 19 -30 28 -10 3 8 11 5 25 -12 l21 -23 0 39 c0 27 6 44 21 56 22 19 21
56 -3 137 -23 79 -34 83 -86 36 l-39 -36 -64 51 c-35 28 -67 56 -71 62 -11 18
74 65 157 86 17 4 55 20 86 34 31 15 61 27 66 27 12 0 23 47 23 97 0 32 2 34
28 31 24 -3 28 -8 32 -48 3 -25 8 -44 13 -42 9 3 10 7 2 43 -4 18 -2 35 5 44
9 11 7 19 -10 37 -38 40 -42 68 -44 281 l-1 207 -37 35 c-20 19 -41 35 -47 35
-21 0 -80 62 -86 91 -4 16 -11 27 -16 23 -15 -9 -10 13 7 27 13 10 17 10 24 0
5 -9 10 -10 14 -3 4 6 14 8 23 5 15 -6 16 -5 3 9 -8 8 -20 14 -25 12 -6 -3
-10 12 -10 36 0 54 18 51 39 -7 25 -70 105 -224 131 -253 12 -14 25 -34 29
-44 3 -10 9 -16 12 -13 3 3 17 -6 30 -21 23 -26 23 -26 24 -5 0 13 -9 27 -21
34 -17 9 -19 13 -8 20 10 6 20 2 32 -12 18 -22 20 -19 17 18 0 12 6 36 15 53
9 17 13 36 9 42 -4 6 -3 8 3 5 6 -4 14 4 17 18 4 14 11 25 16 25 6 0 10 9 10
19 0 10 7 21 15 25 8 3 15 12 15 20 0 8 6 19 13 23 22 14 67 88 67 111 0 21
35 92 73 146 20 29 21 29 29 7 4 -12 11 -20 16 -17 15 9 7 -39 -12 -66 -21
-31 -40 -28 -30 5 6 22 6 22 -10 2 -19 -24 -21 -56 -3 -52 8 1 11 -7 9 -23 -5
-32 -61 -168 -73 -176 -5 -3 -9 -13 -9 -22 0 -9 -13 -51 -29 -92 -19 -49 -31
-100 -34 -148 -5 -82 -17 -110 -17 -39 0 26 -4 47 -10 47 -5 0 -10 5 -10 11 0
5 5 7 10 4 6 -3 10 -1 10 4 0 6 -7 11 -16 11 -14 0 -16 -13 -10 -114 9 -174
42 -299 91 -348 19 -18 37 -46 41 -63 8 -40 18 -50 84 -94 l55 -36 112 0 c88
0 109 -3 101 -12 -14 -18 2 -16 40 3 18 8 37 12 43 8 6 -3 15 0 20 7 4 7 11
11 14 7 4 -3 -26 -40 -67 -81 -49 -50 -84 -77 -106 -81 -17 -4 -34 -12 -37
-17 -4 -5 -17 -9 -31 -9 -14 0 -22 -4 -19 -10 19 -30 101 0 166 62 77 72 111
98 120 92 5 -3 9 -1 9 4 0 6 18 19 40 31 39 20 40 20 40 2 0 -11 -4 -21 -8
-23 -12 -4 -24 -58 -14 -58 5 0 14 12 21 28 41 87 58 116 79 130 12 8 25 12
28 10 5 -6 -27 -60 -64 -108 -11 -14 -27 -41 -37 -60 -31 -60 -110 -143 -92
-96 12 30 -13 16 -37 -21 -46 -70 -142 -148 -174 -141 -12 3 -4 10 23 23 40
18 125 97 129 119 1 6 8 22 15 34 20 38 5 37 -33 -1 -19 -20 -56 -50 -82 -68
l-47 -32 7 27 c7 28 -10 37 -20 11 -4 -8 -12 -15 -20 -15 -8 0 -14 -7 -14 -15
0 -17 -30 -35 -60 -35 -29 0 -102 39 -95 51 4 5 2 8 -4 7 -6 -2 -17 8 -24 21
-7 14 -26 28 -44 33 -18 5 -33 13 -33 20 0 6 6 5 17 -3 14 -12 14 -10 -2 14
-16 26 -18 26 -31 10 -7 -10 -14 -25 -14 -34 0 -9 -9 -28 -20 -42 -11 -14 -20
-30 -20 -36 0 -6 -5 -11 -12 -11 -6 0 -4 -8 6 -19 10 -11 15 -24 12 -30 -4 -5
-1 -13 5 -17 8 -5 9 -3 4 6 -6 9 -4 11 4 5 7 -4 11 -16 8 -26 -3 -11 0 -19 7
-19 7 0 12 -14 13 -32 0 -33 46 -118 95 -177 15 -16 41 -56 59 -88 18 -32 50
-80 70 -108 42 -57 112 -200 128 -261 6 -23 20 -53 31 -67 16 -21 20 -40 20
-111 0 -47 6 -105 14 -128 7 -24 20 -64 27 -90 7 -27 16 -48 19 -48 3 0 6 -17
6 -37 0 -21 10 -62 21 -90 12 -29 24 -71 28 -93 4 -22 14 -54 22 -71 9 -17 15
-43 15 -58 0 -14 13 -45 29 -69 16 -24 29 -47 29 -51 0 -5 16 -19 35 -32 24
-16 34 -30 31 -41 -6 -24 11 -23 24 2 10 19 13 19 33 5 12 -8 29 -15 38 -15 9
0 25 -12 35 -27 10 -16 39 -48 66 -71 26 -24 48 -49 48 -56 0 -7 11 -35 25
-62 64 -126 98 -313 105 -589 8 -266 10 -288 51 -423 10 -34 16 -69 12 -77 -3
-9 3 -25 12 -35 20 -22 4 -28 -17 -7 -7 7 -33 31 -58 52 l-44 40 29 -42 c17
-23 49 -54 71 -68 30 -19 47 -39 58 -70 20 -50 56 -69 106 -55 18 5 30 5 30
-1 0 -5 -7 -9 -15 -9 -8 0 -15 -4 -15 -10 0 -10 38 -6 95 10 17 5 65 11 107
15 74 6 118 26 118 52 0 14 56 37 69 28 6 -3 11 -1 11 6 0 7 10 9 30 6 36 -8
42 16 10 33 -11 6 -18 16 -14 21 3 6 -3 13 -15 16 -28 7 -27 23 2 24 12 0 16
3 10 6 -7 2 -13 14 -13 24 0 11 -4 18 -9 15 -15 -9 -20 32 -8 59 7 14 20 25
30 25 10 0 15 -4 12 -10 -3 -5 1 -10 10 -10 9 0 31 -14 48 -31 17 -17 36 -32
41 -33 6 -1 49 -38 94 -82 46 -43 92 -83 103 -88 31 -15 23 -36 -13 -36 -18 0
-49 -4 -68 -10 -19 -5 -47 -11 -63 -14 -33 -6 -127 -58 -151 -85 -17 -18 -17
-20 1 -42 32 -42 118 -123 165 -156 25 -18 92 -57 149 -86 87 -44 104 -56 106
-77 2 -14 -3 -33 -11 -43 -13 -17 -16 -17 -38 -3 -17 11 -32 13 -60 7 -30 -7
-40 -5 -54 10 -9 10 -25 21 -35 24 -10 3 -21 14 -24 25 -3 10 -35 37 -71 59
-73 46 -76 47 -68 26 7 -17 -31 -22 -41 -6 -3 5 -39 26 -80 47 -41 21 -85 48
-97 61 -12 13 -27 23 -33 23 -7 0 -23 8 -36 19 -13 10 -44 29 -69 42 -25 13
-66 39 -93 57 -26 18 -65 41 -87 51 -35 15 -213 180 -305 282 -125 138 -196
326 -209 554 -4 61 -11 133 -16 160 -5 28 -12 66 -15 85 -3 20 -19 51 -35 70
l-30 35 -18 -25 c-43 -63 -176 -169 -187 -150 -4 7 -11 7 -18 2 -7 -5 -31 -12
-54 -15 l-42 -5 15 30 c9 18 21 28 29 24 8 -3 13 2 13 12 -1 9 13 41 31 70 18
29 39 73 46 97 8 24 18 52 23 62 20 36 44 179 43 253 -1 41 -8 102 -15 135 -8
33 -13 62 -10 64 2 2 12 -3 22 -12 21 -19 42 -22 42 -7 0 6 -20 19 -44 30 -40
17 -44 22 -44 52 0 66 -77 298 -99 298 -10 0 -11 -4 -3 -19 13 -25 14 -52 0
-31 -17 27 -22 -15 -15 -117 12 -152 12 -158 19 -190 10 -42 -23 -157 -67
-236 -61 -109 -180 -197 -266 -197 -23 0 -28 19 -9 38 7 7 9 12 5 12 -4 0 7
28 25 61 18 34 44 83 58 109 14 26 33 56 42 67 37 41 52 111 33 157 -12 29
-12 35 -1 39 22 8 56 112 57 170 0 29 4 75 8 104 4 29 4 50 -1 47 -11 -7 -10
13 2 35 6 11 5 63 -2 144 -11 125 -12 126 -35 121 -14 -4 -23 -2 -23 5 0 6 -9
11 -20 11 -17 0 -20 -6 -18 -40 1 -21 -3 -45 -8 -52 -5 -7 -9 -25 -8 -40 1
-23 -3 -28 -22 -28 -24 0 -55 -35 -89 -102 -10 -20 -22 -35 -25 -33 -4 3 -18
-7 -31 -22 -13 -14 -18 -23 -11 -18 10 5 13 2 10 -11 -2 -13 -48 -42 -142 -89
-76 -38 -155 -85 -175 -103 -20 -18 -60 -51 -90 -75 -30 -23 -62 -58 -72 -77
-11 -19 -47 -62 -81 -95 -95 -91 -115 -155 -59 -184 28 -15 16 -38 -27 -52
-27 -9 -37 -9 -40 0 -2 6 -12 11 -22 11 -16 0 -18 6 -13 38 13 96 34 145 85
198 28 30 80 73 116 96 51 33 61 44 50 52 -32 25 -25 86 10 86 23 0 111 55
118 75 4 8 10 13 15 10 14 -9 58 36 52 53 -4 10 -2 13 5 8 7 -4 20 -2 29 3 10
6 14 11 8 11 -16 0 49 40 66 40 9 0 28 18 43 40 14 22 30 40 34 40 17 0 142
126 152 154 23 62 29 106 14 106 -16 0 -19 33 -5 58 10 19 -26 178 -52 228 -8
16 -28 72 -46 124 -43 132 -110 261 -142 279 -25 14 -29 13 -84 -34 -52 -45
-57 -52 -52 -82 3 -18 3 -33 -1 -33 -4 0 -14 -21 -21 -47 -31 -109 -54 -173
-63 -173 -5 0 -4 9 2 21 7 11 10 22 8 24 -2 3 -22 -30 -43 -73 -22 -42 -56
-95 -75 -117 -20 -22 -47 -56 -62 -75 -14 -19 -35 -45 -47 -57 -12 -12 -21
-28 -21 -36 0 -7 -17 -26 -38 -42 -21 -15 -53 -50 -71 -76 -18 -26 -49 -60
-68 -75 l-35 -27 17 27 c10 15 15 29 12 32 -3 3 -19 -20 -36 -52 -17 -33 -57
-86 -88 -120 l-58 -61 0 217 c0 187 -2 221 -16 236 -9 11 -24 33 -32 49 -9 17
-26 42 -39 57 -13 14 -34 41 -48 58 -14 17 -48 49 -76 70 -51 40 -218 130
-241 130 -7 0 -13 5 -13 10 0 14 32 5 190 -52 242 -89 335 -105 377 -66 26 24
31 84 12 121 -7 11 -13 54 -14 94 -3 60 -8 82 -32 120 -31 54 -41 83 -52 164
-5 30 -14 66 -21 80 -15 27 -22 129 -9 129 4 0 10 -8 13 -17 3 -11 4 -7 3 7
-1 18 -7 24 -19 22 -14 -2 -18 4 -18 32 0 20 -9 66 -21 103 -35 115 -32 110
-84 111 -26 1 -53 6 -60 12 -14 12 -25 -6 -25 -42 0 -11 -5 -38 -12 -59 -9
-33 -13 -36 -23 -23 -9 14 -15 10 -38 -25 -15 -23 -30 -41 -33 -41 -11 0 9 64
32 106 13 24 24 48 24 53 0 6 -19 11 -42 11 -72 0 -72 1 -64 151 5 94 2 168
-8 248 -12 100 -12 121 1 165 8 28 20 84 27 124 7 40 22 85 33 100 11 15 25
44 32 65 7 20 38 77 70 125 55 85 92 159 105 213 3 15 12 29 20 32 13 5 97
-47 104 -65 2 -5 18 -8 35 -7 l32 1 -32 9 c-18 5 -44 25 -59 44 -26 34 -26 36
-9 62 17 27 56 73 61 73 2 0 17 -13 35 -29z m439 1 c0 -14 -11 -21 -26 -15 -8
3 -11 9 -8 14 7 11 34 12 34 1z m20 -21 c0 -6 -4 -13 -10 -16 -5 -3 -10 1 -10
9 0 9 5 16 10 16 6 0 10 -4 10 -9z m73 -51 c3 -11 3 -20 1 -20 -2 0 -8 9 -14
20 -6 11 -7 20 -2 20 6 0 12 -9 15 -20z m82 -8 c-3 -3 -11 0 -18 7 -9 10 -8
11 6 5 10 -3 15 -9 12 -12z m69 12 c17 -7 23 -78 7 -88 -11 -7 -2 -55 18 -85
15 -23 14 -24 -5 -13 -35 18 -41 34 -48 115 -7 77 -4 83 28 71z m1012 -65
l-16 -34 6 35 c7 41 16 59 21 43 2 -6 -3 -26 -11 -44z m-1177 8 c0 -9 -2 -8
-6 1 -2 6 -10 9 -15 6 -7 -4 -8 -2 -4 5 9 13 26 5 25 -12z m53 -33 c20 -41 22
-52 11 -63 -11 -10 -15 -7 -23 14 -5 14 -14 25 -19 25 -5 0 -11 9 -14 20 -3
11 -1 20 4 20 5 0 9 10 9 22 0 27 2 24 32 -38z m784 35 c8 -14 -21 -43 -35
-35 -8 5 -8 13 -1 27 12 21 25 25 36 8z m8 -48 c3 -5 -1 -14 -9 -21 -13 -10
-15 -9 -15 9 0 21 14 28 24 12z m303 -43 c-3 -8 -6 -5 -6 6 -1 11 2 17 5 13 3
-3 4 -12 1 -19z m-544 -18 c-3 -12 -8 -19 -11 -16 -5 6 5 36 12 36 2 0 2 -9
-1 -20z m300 3 c-3 -10 -9 -22 -13 -28 -4 -5 -22 -37 -40 -70 -31 -59 -63 -95
-82 -95 -6 0 -2 12 8 28 10 15 31 52 47 82 30 56 64 100 78 100 5 0 6 -8 2
-17z m-800 -48 c7 0 13 -11 15 -25 2 -24 1 -24 -28 10 -16 19 -30 39 -30 45 0
5 7 1 16 -10 8 -11 20 -20 27 -20z m47 -5 c0 -10 5 -22 10 -25 6 -3 10 -14 10
-23 -1 -15 -2 -15 -11 1 -16 28 -29 78 -18 72 5 -4 9 -15 9 -25z m-196 -65 c3
-8 1 -15 -4 -15 -6 0 -10 7 -10 15 0 8 2 15 4 15 2 0 6 -7 10 -15z m206 -26
c0 -5 14 -22 30 -37 17 -16 30 -33 30 -37 0 -5 -11 2 -25 15 -14 13 -25 18
-25 12 0 -7 -4 -12 -8 -12 -12 0 -52 82 -45 93 5 9 43 -21 43 -34z m-43 -19
c6 -16 8 -30 3 -30 -4 0 -10 8 -14 18 -3 9 -9 23 -12 30 -3 6 -2 12 3 12 5 0
14 -13 20 -30z m-30 -37 c-2 -12 1 -24 6 -26 8 -2 8 -5 0 -10 -14 -9 -47 59
-38 81 6 15 8 15 21 -3 8 -11 13 -30 11 -42z m1458 2 c91 -49 133 -83 182
-147 131 -172 178 -379 142 -624 -7 -47 -19 -84 -29 -94 -14 -14 -18 -35 -18
-100 0 -47 -4 -86 -11 -93 -8 -8 -10 4 -6 48 11 137 14 344 6 395 -23 145 -83
295 -173 432 -9 13 -18 33 -21 43 -6 19 -2 -26 8 -90 3 -16 -4 -3 -16 30 -22
62 -35 85 -50 85 -5 0 -9 -8 -9 -18 0 -33 -13 -32 -44 4 -35 40 -142 84 -205
84 -91 0 -171 -50 -209 -130 -22 -46 -26 -70 -28 -148 0 -51 3 -95 7 -97 13
-9 104 36 136 67 18 18 36 29 39 25 11 -11 -54 -133 -79 -150 -12 -8 -35 -27
-51 -41 -15 -15 -31 -24 -34 -21 -4 3 0 10 8 15 8 5 11 13 6 17 -4 4 -14 -1
-22 -12 -24 -32 12 -42 63 -18 35 17 40 18 40 4 0 -36 -92 -133 -170 -181 -48
-28 -177 -42 -177 -19 0 8 -14 30 -31 48 -20 22 -29 41 -26 53 3 11 -5 35 -19
55 -13 20 -24 42 -24 50 0 8 -4 12 -9 9 -20 -13 -41 7 -41 38 0 37 7 49 38 65
26 14 24 21 -5 25 -21 4 -21 16 2 111 9 37 44 108 57 116 5 3 9 9 9 13 -1 3 2
6 6 6 11 0 13 -70 3 -114 -7 -31 -5 -48 9 -76 13 -27 16 -49 11 -81 -3 -24 -3
-51 1 -59 4 -8 20 -50 36 -92 30 -85 36 -88 96 -63 29 12 38 23 47 54 5 21 21
55 35 75 29 43 29 43 10 80 -9 16 -13 37 -10 47 4 12 -1 20 -16 24 -15 5 -20
13 -16 28 3 12 12 47 20 79 8 31 30 77 48 103 19 26 41 58 49 71 8 13 27 29
42 35 16 6 28 15 28 18 0 8 108 47 150 55 69 13 146 -1 215 -39z m64 -6 c33
-26 19 -24 -22 4 -68 44 -72 47 -37 31 19 -9 46 -25 59 -35z m-805 -11 c-13
-45 -46 -103 -68 -120 -15 -13 -18 -20 -9 -26 8 -5 9 -13 3 -22 -8 -13 -10
-13 -10 -1 0 11 -4 9 -15 -5 -14 -19 -14 -19 -15 3 0 12 5 25 11 28 6 4 8 14
5 21 -3 8 5 33 19 54 14 22 25 44 25 49 0 11 39 41 53 41 5 0 5 -10 1 -22z
m-4 -88 c-6 -11 -13 -20 -16 -20 -2 0 0 9 6 20 6 11 13 20 16 20 2 0 0 -9 -6
-20z m390 -210 c0 -5 -5 -10 -11 -10 -5 0 -7 5 -4 10 3 6 8 10 11 10 2 0 4 -4
4 -10z m-514 -37 c-10 -10 -19 5 -10 18 6 11 8 11 12 0 2 -7 1 -15 -2 -18z
m-1069 -115 c-3 -8 -6 -5 -6 6 -1 11 2 17 5 13 3 -3 4 -12 1 -19z m326 5 c4
-3 2 -12 -5 -20 -6 -7 -8 -17 -4 -20 4 -4 11 -2 15 5 6 10 11 10 21 -3 10 -13
9 -15 -6 -15 -18 -1 -18 -1 -1 -14 9 -7 17 -18 17 -24 0 -6 8 -16 18 -21 9 -6
13 -11 8 -11 -5 0 -28 12 -52 28 -36 22 -44 32 -44 58 0 39 15 56 33 37z m464
-85 c-3 -8 -6 -5 -6 6 -1 11 2 17 5 13 3 -3 4 -12 1 -19z m313 2 c0 -5 -2 -10
-4 -10 -3 0 -8 5 -11 10 -3 6 -1 10 4 10 6 0 11 -4 11 -10z m-1076 -76 c9 -24
7 -66 -3 -59 -6 3 -9 13 -9 23 0 9 -3 25 -7 35 -4 9 -3 17 3 17 5 0 13 -7 16
-16z m1922 -89 c-8 -28 -28 -77 -45 -110 -34 -67 -45 -159 -16 -135 20 17 19
7 -6 -41 -11 -23 -18 -48 -15 -56 3 -8 2 -23 -4 -32 -5 -10 -13 -44 -18 -75
-7 -44 -6 -60 4 -71 15 -15 19 -29 6 -21 -5 3 -8 -5 -8 -17 1 -13 -4 -21 -11
-19 -12 2 -17 -10 -14 -30 2 -20 -33 -81 -50 -85 -10 -3 -19 -13 -19 -22 0 -9
-7 -29 -15 -44 -15 -30 -6 -77 15 -77 7 0 9 -8 5 -20 -4 -11 -2 -20 4 -20 6 0
8 -7 5 -15 -8 -21 -25 -19 -18 3 4 12 0 10 -15 -7 -12 -13 -21 -32 -21 -42 0
-11 -7 -22 -15 -25 -10 -4 -14 -14 -10 -28 13 -46 51 -110 87 -147 21 -21 38
-43 38 -47 0 -11 61 -32 93 -32 34 0 77 -17 77 -30 0 -13 -37 -13 -45 0 -3 6
-10 10 -16 10 -17 0 -9 -15 19 -33 l27 -17 -32 6 c-26 5 -33 3 -33 -10 0 -12
-5 -14 -24 -6 -13 4 -27 5 -32 0 -14 -13 -108 31 -153 72 -59 54 -128 143
-154 196 -19 41 -22 63 -22 167 0 72 6 136 14 160 20 62 95 205 107 205 6 0
18 25 28 55 10 33 23 55 31 55 9 0 12 6 8 17 -4 10 -2 14 5 9 6 -3 16 3 22 14
6 11 7 20 3 20 -4 0 -1 6 7 13 8 7 34 37 57 68 23 31 48 62 55 70 8 8 23 37
33 64 10 28 21 55 25 60 4 6 15 32 24 58 23 61 29 56 12 -8z m-826 -20 c7 -8
16 -15 21 -15 5 0 9 7 9 15 0 20 19 19 42 -2 23 -21 23 -33 -1 -33 -11 0 -23
-5 -26 -10 -4 -6 -15 -8 -26 -5 -11 4 -19 2 -19 -4 0 -14 -36 -13 -79 3 -43
15 -52 36 -17 36 16 0 26 6 26 15 0 10 10 15 29 15 16 0 34 -7 41 -15z m815
-102 c-9 -37 -18 -20 -9 19 4 18 9 27 11 20 3 -7 2 -24 -2 -39z m26 -24 c-6
-16 -10 -18 -10 -7 -1 22 12 55 16 42 2 -6 -1 -22 -6 -35z m-1029 -11 c24 1
32 -6 53 -48 14 -27 29 -52 35 -55 15 -9 88 4 103 19 20 20 58 38 65 31 8 -8
-35 -45 -53 -45 -7 0 -26 -7 -41 -15 -45 -23 -116 -6 -159 38 -41 42 -71 98
-44 81 7 -4 25 -7 41 -6z m1233 -154 c-3 -19 -9 -34 -14 -34 -4 0 -3 23 3 52
6 29 12 44 14 34 2 -10 1 -33 -3 -52z m-2427 -211 c9 -36 10 -37 11 -8 1 41
20 19 26 -31 2 -21 8 -65 11 -96 4 -32 3 -58 -2 -58 -5 0 -31 12 -59 25 -36
18 -51 21 -57 12 -14 -23 -20 3 -10 49 11 50 8 69 -9 59 -5 -4 -9 -28 -9 -56
0 -37 -4 -49 -15 -49 -8 0 -15 7 -15 15 0 8 -4 15 -9 15 -6 0 -7 16 -4 35 6
40 -8 47 -25 13 -6 -13 -11 -17 -11 -10 -1 8 -9 10 -26 6 -15 -4 -25 -2 -25 5
0 6 6 8 14 5 8 -3 22 3 30 13 47 54 57 63 72 63 9 0 18 -9 21 -20 7 -28 17
-25 44 15 13 19 27 35 31 35 3 0 10 -17 16 -37z m-258 4 c0 -7 -10 -17 -22
-22 -13 -6 -24 -20 -26 -32 -2 -13 -8 -23 -13 -23 -5 0 -7 12 -3 28 9 40 64
83 64 49z m30 9 c0 -3 -4 -8 -10 -11 -5 -3 -10 -1 -10 4 0 6 5 11 10 11 6 0
10 -2 10 -4z m1692 -248 c-7 -7 -12 -8 -12 -2 0 14 12 26 19 19 2 -3 -1 -11
-7 -17z m-1422 -33 c10 -12 10 -15 -3 -15 -8 0 -20 7 -27 15 -10 12 -10 15 3
15 8 0 20 -7 27 -15z m1484 -52 c3 -10 10 -40 16 -66 28 -128 189 -380 302
-473 24 -20 52 -43 63 -53 12 -9 29 -20 38 -24 9 -3 29 -28 45 -53 15 -26 69
-93 119 -148 51 -56 102 -119 112 -141 24 -50 28 -120 9 -163 -17 -39 -80 -87
-154 -117 -30 -12 -55 -26 -56 -31 -2 -22 -12 -33 -40 -43 -17 -6 -34 -8 -39
-5 -5 3 -9 0 -9 -6 0 -6 -4 -8 -10 -5 -6 3 -7 -1 -4 -9 5 -13 -3 -16 -45 -16
-34 0 -51 4 -51 13 0 9 -2 9 -9 -1 -6 -10 -20 -12 -57 -6 -27 4 -51 8 -54 9
-12 1 -30 17 -30 26 0 14 30 11 36 -5 4 -10 18 -12 52 -8 53 5 72 16 55 33 -6
6 -9 18 -6 26 5 12 -2 13 -33 7 -22 -3 -46 -10 -55 -15 -11 -6 -23 -1 -39 16
-27 29 -22 43 5 17 12 -11 30 -16 47 -14 36 5 44 19 24 41 -13 14 -15 30 -8
82 14 125 7 298 -16 393 -12 48 -29 102 -37 120 -8 17 -19 54 -26 81 -6 28
-19 66 -29 85 -9 19 -23 51 -29 70 -7 19 -21 55 -31 80 -52 132 -90 250 -90
279 0 20 -2 21 -15 11 -12 -10 -15 -10 -15 2 0 20 10 28 36 28 13 0 25 -8 28
-17z m-1524 -25 c0 -11 -7 -10 -31 2 -28 16 -23 32 6 18 14 -6 25 -15 25 -20z
m-8 -55 c-7 -37 -42 -26 -69 22 -12 22 -23 43 -23 46 0 4 22 -5 48 -19 41 -22
48 -29 44 -49z m963 -7 c13 -28 29 -73 34 -101 5 -27 12 -59 16 -70 3 -11 -12
16 -34 60 -22 44 -40 88 -41 98 0 10 -7 34 -15 54 -24 56 8 24 40 -41z m-70
17 c3 -16 15 -46 25 -68 21 -46 71 -184 96 -264 12 -38 14 -58 7 -70 -7 -11
-6 -19 4 -26 8 -6 15 -33 17 -67 3 -56 1 -60 -42 -110 -24 -29 -63 -70 -86
-91 -51 -48 -256 -204 -305 -234 -45 -26 -65 -18 -21 10 26 17 29 22 16 29
-17 10 -66 -26 -66 -49 0 -7 -5 -13 -10 -13 -6 0 -13 -8 -17 -17 -4 -10 -19
-33 -34 -50 -34 -39 -139 -215 -154 -258 -6 -16 -22 -50 -37 -75 -15 -25 -30
-58 -34 -75 -4 -16 -10 -34 -14 -40 -17 -23 -50 -165 -50 -218 0 -53 3 -59 44
-103 24 -25 49 -44 54 -40 5 3 21 -3 35 -14 18 -14 34 -19 51 -14 31 7 126
-16 126 -31 0 -6 -6 -19 -13 -29 -15 -20 -62 -19 -172 4 -75 16 -128 3 -173
-41 l-33 -32 1 -126 c1 -119 23 -257 49 -316 44 -98 59 -121 93 -153 54 -51
73 -59 132 -61 77 -1 113 14 136 60 11 21 24 39 29 39 5 0 7 9 4 20 -4 13 1
26 12 34 18 13 31 51 14 40 -5 -3 -9 -12 -9 -20 0 -8 -4 -14 -9 -14 -10 0 -6
128 3 138 3 3 6 -16 6 -41 0 -35 4 -47 15 -47 12 0 15 15 15 75 0 58 -3 75
-14 75 -9 0 -12 -7 -9 -19 5 -21 -12 -38 -19 -18 -3 6 -3 33 0 58 3 40 7 46
22 42 20 -5 170 66 203 95 10 9 15 22 11 31 -3 9 -23 66 -44 126 -41 118 -42
134 -16 260 21 100 21 102 51 185 15 41 36 102 47 135 11 33 28 68 38 79 17
18 18 18 35 -8 14 -21 16 -36 9 -73 -10 -60 -14 -94 -13 -113 2 -130 5 -167
13 -163 5 4 6 1 2 -5 -4 -6 0 -24 8 -40 8 -16 12 -32 9 -36 -4 -3 -1 -6 5 -6
7 0 12 -7 12 -15 0 -8 5 -15 10 -15 6 0 10 17 10 38 0 59 17 73 22 17 2 -26 0
-49 -5 -52 -4 -2 3 -13 15 -23 13 -11 18 -19 11 -20 -8 0 -8 -7 0 -29 6 -17
15 -27 20 -24 5 3 4 -4 -2 -16 -8 -14 -8 -21 -1 -21 5 0 10 -13 10 -29 0 -44
18 -83 52 -115 35 -32 131 -86 152 -86 8 0 27 -6 43 -14 15 -8 60 -30 98 -49
39 -19 71 -41 73 -50 2 -8 -15 -25 -42 -41 -41 -24 -66 -60 -90 -129 -6 -18
-7 -18 -33 1 -16 11 -42 35 -60 53 -58 62 -78 76 -110 77 -32 1 -43 -11 -23
-23 6 -3 10 -16 11 -28 0 -12 3 -16 6 -9 11 28 22 9 21 -37 -1 -40 4 -58 28
-92 16 -23 34 -51 41 -63 7 -12 30 -37 52 -56 23 -18 41 -40 41 -47 0 -7 11
-19 25 -25 14 -6 25 -15 25 -19 0 -4 22 -29 48 -56 27 -26 65 -74 86 -105 21
-31 51 -71 67 -90 l29 -33 -6 28 c-5 21 -3 27 11 27 12 0 15 5 10 18 -37 87 5
79 53 -11 11 -21 32 -49 46 -62 14 -13 26 -34 26 -45 0 -31 -18 -60 -37 -60
-12 0 -15 -8 -10 -39 4 -35 1 -42 -29 -69 -25 -22 -34 -39 -34 -61 0 -37 20
-82 32 -75 10 6 118 -56 118 -68 0 -4 18 -13 40 -19 22 -7 45 -18 51 -26 6 -7
18 -13 25 -13 18 0 18 -10 0 -46 -8 -16 -17 -49 -21 -73 -6 -38 -5 -43 9 -38
9 4 16 3 16 -2 0 -13 67 -109 118 -169 68 -81 85 -109 121 -202 18 -47 42
-104 54 -128 14 -28 22 -60 21 -92 0 -53 -20 -152 -37 -187 -27 -58 30 -25 87
49 18 24 59 63 91 88 77 60 155 140 155 160 0 4 12 20 27 36 51 54 105 224
106 334 2 134 -30 187 -178 299 -43 32 -61 39 -136 49 -47 7 -99 10 -115 7
-16 -3 -51 -7 -79 -9 -27 -2 -75 -11 -106 -19 -30 -9 -60 -17 -65 -18 -14 -4
-148 21 -162 30 -10 6 -6 20 17 60 17 28 31 56 31 62 0 5 7 23 15 39 11 21 12
31 4 36 -8 4 -10 28 -6 71 5 52 4 64 -7 60 -7 -3 -19 0 -25 6 -15 15 -43 18
-58 5 -10 -8 -13 -3 -13 23 0 19 4 41 10 49 10 17 -7 43 -22 34 -15 -9 -28 16
-28 54 0 18 -4 40 -9 50 -82 155 -122 419 -96 621 18 138 23 158 39 164 18 7
45 -52 67 -148 37 -154 73 -243 147 -365 12 -19 25 -42 28 -50 14 -31 115
-158 176 -220 68 -70 111 -108 174 -154 21 -16 44 -34 49 -41 6 -7 35 -25 65
-40 30 -15 66 -36 80 -47 49 -38 284 -178 299 -178 8 0 41 -18 72 -40 32 -22
62 -40 68 -40 6 0 11 -4 11 -10 0 -9 66 -26 84 -22 4 2 14 -2 20 -8 7 -5 16
-7 19 -3 4 3 7 1 7 -5 0 -7 8 -12 18 -12 9 -1 32 -14 51 -30 19 -16 38 -27 43
-24 20 13 -7 -54 -36 -87 -17 -19 -36 -44 -42 -55 -11 -18 -12 -18 -38 5 -14
14 -26 32 -26 42 0 11 -6 16 -18 13 -10 -3 -39 11 -70 33 -117 85 -167 113
-191 106 -17 -4 -22 -3 -17 5 5 9 -18 12 -85 12 l-92 0 26 -20 c14 -11 28 -20
32 -20 10 0 95 -71 95 -80 0 -4 24 -32 53 -62 101 -106 148 -176 171 -254 4
-13 -17 -90 -53 -200 -76 -230 -144 -456 -143 -471 0 -2 -6 -31 -15 -65 -13
-54 -31 -162 -35 -206 -1 -8 -8 -10 -17 -6 -9 4 -26 9 -39 11 -12 3 -33 18
-45 33 -23 27 -67 56 -67 45 0 -18 83 -85 121 -99 26 -8 43 -20 41 -28 -2 -7
-4 -25 -4 -40 -1 -15 -2 -28 -3 -28 -15 0 -134 55 -149 69 -12 10 -30 21 -41
23 -11 2 -20 10 -20 17 0 8 -10 15 -22 16 -13 1 -23 -2 -23 -5 0 -12 83 -120
92 -120 5 0 13 -10 18 -22 5 -13 17 -33 25 -45 25 -33 2 -36 -41 -5 -22 16
-48 32 -59 36 -15 5 -16 9 -6 15 10 6 -4 26 -53 75 -37 36 -69 66 -72 66 -3 0
-32 20 -64 45 -32 25 -63 45 -69 45 -19 0 51 -94 113 -152 69 -65 63 -75 -14
-23 -96 64 -89 36 16 -65 113 -110 125 -120 138 -120 7 0 21 -9 30 -19 10 -11
25 -17 33 -14 12 5 14 1 8 -15 -5 -18 -2 -22 15 -22 12 0 18 5 15 10 -3 6 -1
10 6 10 7 0 9 -10 7 -25 -3 -14 1 -30 8 -36 21 -17 17 -31 -6 -19 -11 6 -20
20 -20 30 0 11 -5 20 -11 20 -5 0 -7 -4 -4 -10 3 -5 -3 -10 -15 -10 -13 0 -19
-4 -14 -11 8 -14 115 -62 121 -55 3 3 -5 19 -17 36 -26 36 -20 48 15 32 14 -6
31 -9 40 -6 17 7 53 -25 39 -34 -15 -11 -17 -72 -2 -72 8 0 6 -5 -5 -11 -9 -5
-22 -7 -29 -3 -8 5 -9 2 -5 -9 5 -15 -1 -17 -46 -17 -55 0 -76 9 -170 73 -31
20 -63 37 -70 37 -8 0 -17 7 -21 15 -3 8 -11 15 -17 15 -7 0 -4 -9 7 -21 10
-12 18 -24 16 -27 -2 -4 1 -8 7 -10 6 -2 11 1 11 8 0 6 4 9 9 6 5 -3 7 -15 4
-25 -3 -10 0 -28 7 -40 18 -34 -12 -37 -66 -7 -60 34 -64 33 -28 -6 23 -24 25
-30 9 -24 -11 5 -24 9 -30 10 -5 1 -27 10 -49 19 -55 24 -78 22 -47 -4 13 -11
21 -22 18 -26 -10 -9 -232 46 -336 83 -52 19 -96 33 -97 31 -2 -2 13 -16 34
-31 20 -15 46 -33 57 -41 33 -25 -211 -19 -293 7 -69 21 -84 18 -60 -9 35 -40
51 -180 22 -190 -5 -2 -20 14 -32 36 -47 83 -137 144 -292 196 -56 19 -109 40
-116 46 -8 6 -14 8 -14 5 0 -4 -9 -2 -21 4 -33 18 -36 1 -4 -24 19 -15 29 -33
31 -55 2 -31 1 -31 -44 -32 -43 0 -290 -13 -492 -25 -54 -3 -81 -2 -75 5 6 5
19 11 29 13 32 5 29 25 -5 32 -17 3 -56 6 -85 6 -61 0 -71 16 -29 44 30 20
125 116 125 127 0 4 -4 10 -9 13 -5 3 -19 25 -31 48 -24 47 -66 110 -134 203
-25 33 -45 63 -45 67 -1 4 -12 24 -26 44 -14 20 -25 44 -25 54 0 9 -9 25 -20
35 -10 9 -29 47 -41 84 -18 55 -58 130 -79 151 -3 3 -12 17 -20 31 -22 38 -57
83 -128 163 -88 98 -87 97 -107 131 -10 17 -27 40 -38 52 -11 12 -25 31 -31
41 -42 72 -56 104 -50 114 4 6 8 26 10 45 1 19 9 42 17 51 8 10 18 28 22 42 9
27 35 51 48 43 4 -3 4 -10 -1 -16 -16 -22 -42 -97 -33 -97 5 0 19 21 32 46 27
58 124 205 200 305 73 97 162 274 183 364 8 39 14 94 13 123 -2 48 0 53 21 59
13 3 56 2 95 -1 75 -7 82 -8 132 -3 17 2 39 4 50 5 32 3 146 83 203 142 70 72
99 135 119 249 14 86 14 96 -1 127 -9 19 -16 42 -16 50 0 8 -5 25 -11 36 -11
21 -12 21 -25 -3 l-13 -24 -1 23 c0 31 -17 19 -25 -17 -4 -20 -16 -33 -37 -42
-28 -12 -30 -15 -24 -53 19 -120 19 -162 -3 -210 -26 -60 -115 -172 -150 -190
-41 -21 -115 -28 -163 -16 -59 16 -138 98 -183 192 -20 40 -51 131 -71 203
-19 71 -48 168 -64 215 -90 265 -104 370 -76 545 13 82 61 220 87 251 10 12
23 35 67 119 29 54 143 219 185 265 22 25 58 65 80 90 22 25 116 122 208 217
93 95 169 177 169 181 0 5 7 15 15 22 21 18 55 98 49 115 -3 7 6 33 19 57 27
47 50 132 67 248 16 107 19 120 29 120 5 0 12 -12 16 -27z m1575 -32 c-14 -54
-35 -67 -26 -16 7 33 26 68 34 60 2 -2 -2 -21 -8 -44z m-1182 -636 c-1 -19 -6
-35 -10 -35 -9 0 -10 16 -2 48 9 33 15 27 12 -13z m382 -196 c0 -6 -9 -7 -22
-3 -20 6 -21 5 -9 -10 7 -9 9 -16 5 -16 -5 0 -15 9 -22 21 -8 12 -9 18 -3 14
6 -3 11 1 11 10 0 13 4 14 20 5 11 -6 20 -15 20 -21z m-830 -24 c-7 -8 -20
-15 -29 -15 -13 1 -13 3 3 15 26 19 42 19 26 0z m-101 -64 c-13 -11 -26 -18
-28 -15 -7 7 21 34 36 34 10 0 8 -6 -8 -19z m349 -80 c28 -24 30 -29 16 -35
-9 -3 -22 -2 -29 4 -7 6 -15 6 -21 0 -5 -5 -10 4 -11 26 -3 41 2 42 45 5z
m1229 -68 c40 -45 39 -68 -2 -69 -45 -1 -55 -3 -54 -11 3 -19 -2 -22 -24 -14
-15 6 -26 4 -35 -5 -16 -17 -59 -18 -64 -2 -5 13 34 38 58 38 8 0 29 22 46 50
18 27 35 50 37 50 2 0 19 -17 38 -37z m59 -120 c14 -34 15 -77 3 -100 -19 -35
-26 -28 -33 31 -8 73 9 115 30 69z m-71 -99 c-3 -24 -18 -55 -35 -76 -32 -39
-147 -121 -163 -115 -5 1 27 41 71 88 59 64 81 95 86 124 4 20 13 46 19 56 11
18 12 17 20 -8 4 -16 5 -46 2 -69z m-565 6 c0 -5 -2 -10 -4 -10 -3 0 -8 5 -11
10 -3 6 -1 10 4 10 6 0 11 -4 11 -10z m-2998 -107 c18 -32 41 -71 51 -88 56
-97 61 -112 44 -138 -19 -29 -88 -67 -122 -67 -14 0 -26 1 -26 3 -1 1 -6 58
-13 127 -9 106 -9 132 4 172 8 26 18 48 22 48 4 0 22 -26 40 -57z m1580 -5 c5
-35 -13 -90 -29 -84 -8 4 -13 -3 -14 -19 -1 -14 -2 -28 -3 -32 -11 -45 -19
-119 -18 -168 l0 -60 -18 45 c-11 25 -19 59 -19 75 -1 31 20 110 40 155 18 38
27 63 34 88 4 12 10 22 15 22 5 0 10 -10 12 -22z m38 -142 c0 -3 -4 -8 -10
-11 -5 -3 -10 -1 -10 4 0 6 5 11 10 11 6 0 10 -2 10 -4z m295 -37 c5 -5 17 -9
27 -9 27 0 39 -32 29 -84 -4 -25 -6 -48 -3 -51 3 -3 0 -5 -6 -5 -7 0 -12 9
-12 20 0 10 -8 24 -19 29 -10 6 -26 28 -34 50 -9 22 -26 47 -39 56 -23 17 -23
17 12 10 19 -4 39 -11 45 -16z m385 -157 c0 -27 -25 -5 -28 24 -3 28 -3 28 12
9 8 -11 16 -26 16 -33z m1976 -103 c8 -15 21 -32 29 -39 8 -7 15 -18 15 -24 0
-7 11 -22 23 -33 13 -11 30 -29 38 -40 13 -17 42 -42 178 -151 22 -19 39 -37
36 -42 -3 -4 -33 7 -67 26 -35 19 -91 48 -126 66 -36 19 -65 41 -68 53 -11 34
-44 48 -44 18 -1 -16 -2 -15 -12 2 -7 11 -18 26 -25 33 -25 26 -36 54 -23 62
7 4 0 12 -19 20 -34 14 -39 31 -15 51 13 10 15 26 10 78 l-6 65 31 -60 c17
-32 38 -71 45 -85z m-136 -176 c19 -49 47 -101 62 -116 15 -16 28 -33 28 -38
0 -18 71 -87 103 -100 17 -7 45 -23 60 -36 16 -13 39 -26 53 -29 13 -3 24 -10
24 -15 0 -4 19 -18 43 -29 59 -30 115 -61 167 -95 25 -16 61 -38 80 -48 19
-11 47 -29 61 -41 14 -11 38 -30 54 -41 46 -33 210 -177 214 -189 2 -6 20 -27
40 -47 20 -19 46 -49 59 -65 45 -57 92 -123 92 -130 0 -4 13 -28 29 -53 43
-70 71 -160 77 -247 6 -84 1 -103 -72 -274 -25 -58 -28 -77 -28 -180 -1 -113
0 -116 37 -190 21 -41 42 -82 47 -90 5 -8 28 -49 51 -90 23 -41 57 -97 74
-125 18 -27 38 -62 46 -77 8 -14 29 -52 48 -83 32 -54 33 -61 29 -130 -4 -65
-9 -81 -42 -128 -39 -56 -122 -144 -130 -136 -5 5 -32 135 -40 194 -6 48 -8
54 -35 170 -20 82 -50 184 -132 438 -16 49 -29 96 -29 104 0 9 -14 46 -31 82
-17 36 -32 76 -34 88 -1 13 -7 28 -12 35 -6 7 -14 29 -18 48 -4 19 -15 51 -25
70 -10 19 -18 38 -19 42 -15 80 -233 464 -281 493 -5 3 -10 11 -10 16 0 6 3 8
8 5 19 -12 111 76 113 108 0 6 2 30 4 53 2 28 -3 56 -16 83 -24 49 -86 120
-105 120 -8 0 -22 5 -32 10 -14 9 -150 56 -201 71 -26 7 -24 -32 2 -59 14 -15
37 -51 51 -79 24 -48 25 -53 8 -53 -21 0 -154 77 -223 129 -58 44 -182 111
-207 112 -9 0 -30 9 -47 20 -16 10 -41 24 -55 31 -14 7 -40 27 -57 44 -28 26
-33 38 -32 75 1 42 32 237 43 269 2 8 13 51 23 95 l18 80 6 -80 5 -80 2 88 c1
48 6 87 10 87 5 0 24 -39 42 -87z m-3708 -15 c36 -29 241 -133 303 -156 127
-45 190 -53 335 -40 33 3 35 1 38 -29 3 -26 -2 -34 -27 -49 -17 -10 -31 -22
-31 -26 0 -4 -4 -8 -10 -8 -5 0 -39 -18 -75 -40 -36 -22 -72 -40 -80 -40 -24
0 -95 -24 -95 -32 0 -5 -11 -8 -25 -8 -41 0 -77 -21 -71 -43 2 -11 0 -30 -5
-44 -7 -19 -5 -31 12 -54 11 -16 25 -29 31 -29 5 0 22 -8 36 -19 15 -10 39
-21 54 -25 39 -9 106 -73 133 -126 30 -60 40 -145 24 -217 -7 -32 -12 -61 -11
-65 1 -3 -5 -12 -13 -18 -13 -11 -17 -7 -26 18 -12 34 -18 38 -82 47 -42 6
-48 5 -71 -20 -37 -40 -43 -88 -19 -145 l20 -47 -35 0 c-28 0 -42 -7 -62 -31
-15 -18 -30 -32 -34 -32 -4 0 -5 31 -2 69 7 82 -7 117 -56 140 -58 28 -100 63
-114 97 -21 51 -27 158 -15 284 32 334 33 378 6 482 -19 79 -63 193 -93 242
-7 12 15 -1 60 -36z m1973 32 c3 -5 1 -10 -4 -10 -6 0 -11 5 -11 10 0 6 2 10
4 10 3 0 8 -4 11 -10z m1835 -55 c22 -30 45 -55 50 -55 6 0 10 -9 10 -20 0
-15 -6 -19 -29 -17 -16 1 -27 5 -25 8 6 10 -26 20 -39 12 -6 -4 -8 0 -4 10 4
10 3 27 -2 40 -16 45 -21 77 -12 77 6 0 29 -25 51 -55z m1058 -72 c30 -26 64
-67 79 -97 24 -47 25 -55 15 -104 -12 -55 -69 -156 -129 -226 -18 -22 -33 -47
-33 -57 0 -9 -6 -22 -14 -28 -11 -9 -16 -6 -23 16 -5 15 -11 50 -12 76 -1 27
-6 56 -11 65 -19 39 -41 174 -35 215 8 54 35 157 47 180 14 27 53 14 116 -40z
m-1611 -12 c-8 -9 -18 -26 -21 -39 -4 -12 -33 -47 -64 -77 -45 -44 -64 -55
-89 -55 -18 0 -33 5 -33 10 0 6 7 10 16 10 14 0 14 1 0 16 -9 8 -15 30 -15 47
0 18 -1 41 -3 52 -2 16 2 19 22 17 21 -2 20 0 -9 13 -39 18 -35 31 6 20 15 -5
37 -8 48 -9 11 -1 19 -7 18 -13 -2 -8 8 -13 25 -13 23 1 24 2 10 11 -32 18
-21 32 21 25 22 -3 42 -2 46 4 3 5 12 7 21 3 13 -5 13 -8 1 -22z m-63 -267
c63 -38 83 -41 262 -43 50 -1 52 -2 57 -33 6 -43 -27 -81 -108 -119 -79 -38
-124 -38 -182 1 -24 17 -48 30 -53 30 -9 0 -90 117 -90 131 0 5 -4 9 -9 9 -12
0 -23 48 -15 62 11 18 73 1 138 -38z m-2852 -133 c100 -35 123 -40 217 -47 87
-6 97 -9 153 -46 86 -57 135 -110 149 -160 7 -24 16 -48 21 -54 12 -16 14
-109 5 -173 -10 -64 -31 -124 -59 -171 -12 -19 -39 -66 -61 -105 -42 -74 -81
-128 -163 -228 -28 -34 -60 -78 -70 -98 -10 -20 -35 -50 -55 -67 -33 -29 -38
-30 -72 -20 -43 13 -77 0 -103 -40 -13 -20 -14 -26 -3 -34 11 -8 10 -9 -3 -4
-10 3 -18 2 -18 -2 0 -5 -7 -17 -15 -28 -14 -17 -15 -14 -9 41 3 33 11 65 18
70 37 34 88 94 89 106 2 8 7 21 12 29 6 8 14 22 20 31 35 56 72 108 96 137 16
18 29 37 29 43 0 6 12 35 26 66 24 53 42 100 65 168 14 39 29 149 29 200 -2
103 -60 213 -130 247 -25 12 -57 30 -72 40 -14 10 -31 18 -38 18 -21 0 -120
70 -120 85 0 19 -3 19 62 -4z m-1183 -72 c2 -182 57 -324 157 -402 48 -38 88
-90 97 -128 3 -13 13 -51 22 -84 15 -59 20 -148 10 -192 -11 -51 -14 -59 -24
-87 -15 -38 -75 -99 -99 -101 -18 -1 -123 -86 -183 -148 -19 -18 -29 -23 -32
-15 -4 8 -6 7 -6 -4 -1 -23 -21 -34 -32 -17 -6 10 -9 9 -15 -6 -3 -11 -15 -39
-25 -62 -10 -24 -19 -50 -19 -59 0 -8 -5 -24 -11 -35 -6 -11 -12 -30 -14 -41
-9 -47 -17 -29 -11 27 3 33 8 94 11 135 7 90 24 125 80 166 38 29 132 65 178
70 9 1 26 9 37 19 11 10 20 15 20 10 0 -4 9 4 20 18 15 19 20 42 21 92 1 61
-2 69 -35 113 -50 67 -75 90 -122 112 -73 36 -117 22 -153 -48 -15 -29 -21
-233 -6 -224 5 3 4 -2 -4 -11 -19 -24 -30 -21 -37 11 -9 39 -55 156 -64 162
-15 10 -28 129 -25 236 2 88 9 128 30 195 25 76 78 187 122 257 21 33 94 112
104 112 4 0 7 -32 8 -71z m4748 -345 c112 -42 112 -43 85 -43 -13 -1 -57 10
-98 24 -41 14 -84 25 -95 25 -11 0 -17 5 -14 10 10 17 51 11 122 -16z m167
-79 c59 -3 116 -9 125 -15 26 -14 138 -169 205 -282 31 -53 56 -99 56 -102 0
-3 13 -34 29 -68 59 -131 69 -156 106 -268 21 -63 43 -128 50 -145 20 -48 36
-96 49 -151 7 -27 16 -56 20 -63 4 -6 16 -47 27 -89 21 -83 20 -81 44 -162 23
-80 43 -164 60 -254 8 -44 19 -94 25 -110 11 -37 40 -169 45 -211 2 -16 11
-70 19 -120 8 -49 17 -112 21 -138 3 -26 10 -71 16 -100 5 -29 19 -122 29
-207 21 -170 48 -371 79 -580 11 -74 21 -160 22 -190 0 -30 7 -137 15 -238 17
-222 18 -282 3 -282 -6 0 -49 39 -96 87 -88 89 -123 117 -183 145 -44 20 -136
47 -181 53 -184 22 -302 44 -316 58 -18 18 -11 45 14 54 10 4 21 12 25 19 4 6
28 15 54 19 l46 7 -7 71 c-4 40 -9 75 -12 80 -2 4 -20 14 -39 22 -46 19 -140
93 -189 149 -46 52 -54 55 -215 75 l-55 6 2 38 c2 22 -4 52 -12 68 -13 25 -21
29 -58 29 -23 0 -55 -7 -72 -16 -31 -17 -157 -54 -183 -54 -21 0 -7 61 29 134
26 52 29 62 19 92 -7 19 -18 34 -25 34 -30 0 -141 -76 -210 -144 -40 -39 -117
-111 -170 -161 -53 -49 -138 -132 -188 -184 -51 -52 -104 -106 -118 -120 -14
-14 -45 -48 -69 -76 -23 -27 -81 -92 -128 -143 -47 -51 -92 -102 -99 -113 -8
-10 -18 -17 -23 -14 -11 7 -4 109 9 145 9 24 24 106 36 200 3 25 8 57 11 73 9
46 -10 30 -35 -31 -12 -31 -31 -73 -41 -92 -10 -19 -21 -53 -25 -75 -10 -51
-10 -48 -30 -125 -9 -36 -19 -74 -21 -85 -2 -11 -7 -31 -10 -45 -12 -55 -16
-187 -7 -193 6 -4 28 10 50 31 82 77 209 191 243 219 20 15 55 46 79 68 23 22
60 51 81 65 20 14 66 44 101 68 115 79 245 135 339 147 50 6 242 -6 345 -21
36 -6 191 -51 238 -69 20 -8 22 -21 4 -32 -20 -11 -87 -103 -99 -133 -14 -35
-48 -199 -47 -224 0 -16 3 -14 11 9 6 17 15 36 21 43 17 21 249 15 487 -13
107 -13 209 -69 280 -155 19 -23 42 -50 50 -59 62 -65 145 -192 138 -211 -2
-5 -28 0 -58 10 -30 10 -56 17 -58 15 -2 -1 15 -27 36 -55 22 -29 43 -66 46
-81 3 -17 12 -29 21 -29 9 0 19 -8 22 -17 4 -10 20 -31 35 -48 15 -16 28 -34
28 -39 0 -6 17 -30 38 -55 66 -79 75 -96 57 -111 -11 -9 -38 -11 -100 -6 -56
5 -85 4 -85 -3 0 -6 17 -39 39 -74 34 -56 79 -146 85 -172 2 -5 6 -23 10 -40
4 -16 11 -39 16 -50 5 -11 14 -37 20 -57 6 -21 16 -40 21 -44 6 -3 22 -31 36
-62 14 -32 36 -72 50 -89 l24 -33 -32 0 c-38 0 -143 36 -181 62 -14 10 -29 18
-34 18 -4 0 -22 11 -40 25 -18 14 -38 25 -45 25 -6 0 -30 15 -53 33 -23 18
-65 45 -94 61 -29 15 -75 42 -102 59 -26 18 -55 37 -64 42 -14 9 -13 15 9 52
24 39 28 41 84 48 48 5 65 3 97 -14 21 -12 42 -21 46 -21 15 0 8 46 -12 85
-24 47 -25 55 -4 55 9 0 14 5 12 12 -8 23 -168 97 -193 89 -5 -2 -42 -5 -82
-6 -74 -3 -118 -21 -156 -63 -15 -16 -14 -23 9 -97 31 -96 29 -151 -9 -327
-37 -167 -94 -276 -202 -380 -22 -22 -53 -46 -70 -55 -41 -22 -139 -28 -221
-13 -38 6 -86 13 -106 15 -21 3 -55 16 -77 31 -46 30 -57 61 -46 132 6 44 6
45 -12 31 -28 -22 -33 -31 -33 -72 0 -89 68 -151 177 -162 21 -2 76 -11 123
-19 47 -9 90 -17 95 -18 27 -4 96 18 150 47 71 39 195 139 221 178 11 15 26
29 34 32 43 14 100 160 119 304 6 46 13 86 15 89 7 6 68 -33 92 -60 12 -13 30
-41 40 -62 15 -33 19 -36 24 -20 7 18 8 17 14 -3 4 -13 5 -27 1 -32 -3 -5 -1
-12 4 -15 5 -3 12 -26 15 -51 4 -25 11 -43 17 -40 5 4 9 -2 9 -13 0 -10 9 -29
20 -42 11 -13 20 -32 20 -43 0 -20 14 -69 31 -112 12 -29 38 -231 45 -338 l5
-92 -73 80 c-144 158 -206 214 -249 225 -23 6 -43 9 -46 6 -3 -3 8 -45 25 -93
17 -49 34 -104 38 -123 11 -48 11 -50 14 -52 10 -11 27 -202 23 -263 -4 -68
-39 -235 -58 -280 -7 -16 -20 -56 -29 -87 -9 -32 -20 -58 -25 -58 -5 0 -11 69
-13 153 -3 117 -9 162 -23 197 -23 57 -21 55 -40 37 -8 -9 -15 -31 -15 -51 0
-19 -5 -38 -10 -41 -6 -4 -17 -22 -25 -41 -8 -19 -19 -34 -24 -34 -6 0 -13
-17 -17 -37 -4 -21 -15 -55 -25 -75 -11 -21 -19 -44 -19 -52 0 -8 -15 -43 -33
-78 -18 -35 -39 -79 -47 -98 -7 -19 -19 -42 -25 -50 -27 -34 -147 -285 -159
-334 -4 -15 -9 -26 -12 -24 -2 3 -24 76 -49 163 -25 87 -54 176 -64 199 -11
23 -23 50 -26 61 -7 18 -9 17 -20 -11 -8 -16 -18 -70 -24 -120 -16 -136 -30
-226 -40 -254 -4 -14 -16 -52 -26 -85 -9 -33 -21 -69 -25 -80 -4 -11 -14 -40
-21 -65 l-13 -45 -9 75 c-15 134 -45 246 -96 351 -45 94 -48 98 -44 58 3 -24
-1 -64 -8 -89 -7 -25 -14 -49 -15 -55 0 -5 -4 -23 -8 -40 -3 -16 -11 -52 -17
-80 -27 -122 -107 -335 -130 -343 -5 -2 -9 -10 -9 -17 0 -7 -17 -48 -38 -91
-22 -44 -54 -110 -72 -147 -18 -37 -37 -70 -41 -73 -5 -2 -20 -32 -35 -64 -15
-33 -31 -60 -35 -60 -5 0 -9 -8 -9 -17 0 -10 -7 -27 -15 -37 -8 -11 -15 -28
-15 -38 0 -10 -5 -18 -11 -18 -12 0 -4 67 11 85 16 21 72 184 100 290 40 153
53 257 54 425 1 126 -2 154 -22 217 -13 39 -35 82 -48 94 -13 12 -24 27 -24
33 0 6 27 38 61 71 33 33 70 76 81 95 12 19 42 60 67 90 49 58 71 98 71 130 0
11 4 20 9 20 11 0 41 56 41 75 0 13 29 89 61 163 11 23 45 68 77 100 60 60
113 119 125 138 10 16 -39 15 -91 -2 -23 -8 -55 -14 -70 -14 -28 0 -82 -44
-82 -66 0 -6 -15 -25 -34 -43 -19 -18 -50 -56 -68 -85 -73 -109 -106 -162
-113 -184 -4 -13 -27 -48 -51 -78 -24 -29 -44 -58 -44 -63 0 -5 -16 -30 -35
-55 -19 -26 -35 -50 -35 -54 -1 -26 -173 -172 -203 -172 -8 0 -44 -15 -79 -34
-77 -40 -108 -51 -108 -37 0 6 6 11 14 11 31 0 171 113 195 157 21 40 11 37
-38 -11 -59 -58 -81 -57 -40 2 16 23 29 47 29 52 0 25 -29 5 -67 -45 l-43 -55
-72 -1 c-47 -1 -64 -4 -48 -8 l25 -7 -25 -7 c-48 -13 -77 -7 -140 32 -76 46
-85 61 -36 61 19 0 38 5 42 11 4 8 -1 9 -16 4 -14 -4 -20 -3 -16 3 3 5 20 13
38 16 18 4 51 19 73 34 33 23 44 39 61 92 48 144 48 144 29 196 -10 27 -21 54
-25 59 -4 6 -10 19 -14 30 -6 18 -5 17 17 -3 32 -31 74 -108 82 -155 4 -20 11
-37 15 -37 12 0 -8 100 -25 126 -8 13 -15 27 -15 30 0 10 71 -72 87 -100 11
-19 12 -19 13 -3 0 10 5 15 10 12 14 -9 12 31 -5 94 -8 30 -12 58 -8 63 7 12
-16 28 -103 73 -38 20 -73 40 -78 45 -16 16 3 54 64 130 34 41 76 93 93 115
18 22 53 61 80 88 61 62 64 110 5 88 -56 -21 -307 -318 -308 -363 0 -7 -8 -3
-18 9 -22 29 -69 59 -163 106 -95 48 -200 60 -293 33 -140 -41 -368 -168 -468
-262 -47 -44 -98 -107 -98 -122 0 -5 21 -30 48 -55 51 -49 129 -152 157 -206
24 -47 101 -119 153 -143 40 -18 43 -22 37 -46 -4 -15 -8 -42 -8 -59 0 -18 -4
-33 -9 -33 -5 0 -30 11 -56 25 -61 33 -87 32 -45 -1 28 -22 31 -28 20 -45 -18
-28 -30 -24 -81 29 -45 45 -46 45 -27 12 11 -20 30 -46 42 -58 28 -30 17 -39
-24 -20 -17 8 -59 23 -92 32 -111 32 -188 98 -350 301 -22 28 -50 61 -62 75
-47 51 -83 103 -83 120 0 26 -26 85 -44 100 -9 7 -16 20 -16 29 0 9 -23 61
-50 116 -28 55 -50 105 -50 113 0 19 -70 100 -106 123 -20 12 -49 19 -82 19
-52 0 -61 -10 -62 -64 0 -17 1 -18 26 -1 l26 17 -7 -32 c-6 -28 -5 -31 11 -26
36 11 75 -34 106 -125 29 -82 37 -111 76 -255 11 -39 31 -97 46 -129 14 -32
26 -63 26 -69 0 -7 11 -23 25 -36 14 -13 25 -29 25 -37 0 -7 4 -13 8 -13 4 0
15 -12 24 -27 54 -92 235 -261 329 -309 28 -14 52 -31 56 -39 6 -18 -17 -56
-64 -104 -18 -19 -47 -60 -64 -90 l-31 -56 5 -165 c6 -193 5 -179 17 -160 8
12 10 11 10 -8 0 -13 7 -36 15 -52 9 -17 13 -30 10 -30 -4 0 -3 -5 1 -12 4 -7
9 -25 11 -40 1 -15 13 -38 25 -50 15 -15 20 -17 15 -5 -3 9 -4 17 -1 17 9 0
36 -30 27 -30 -4 0 -14 -4 -22 -9 -12 -7 -10 -15 7 -43 12 -18 26 -54 32 -78
26 -106 40 -177 40 -202 0 -15 5 -30 10 -33 15 -10 12 -43 -6 -53 -16 -9 -38
-82 -24 -82 4 0 15 11 24 25 9 14 25 25 36 25 10 0 21 9 25 19 7 23 39 45 77
55 22 5 30 2 43 -18 10 -15 14 -33 10 -49 -6 -24 13 -68 40 -92 20 -18 64
-105 55 -110 -9 -5 -157 12 -170 20 -4 3 -35 7 -67 10 -77 6 -110 21 -122 55
-8 25 -15 29 -68 35 -32 4 -62 10 -68 13 -5 4 -19 8 -30 9 -11 2 -35 10 -53
19 -46 22 -126 29 -159 15 -38 -17 -78 -68 -65 -84 5 -7 12 -24 16 -38 7 -32
88 -125 131 -151 36 -22 22 -23 -35 -3 -23 8 -58 15 -77 15 -22 0 -48 10 -71
27 -57 42 -202 185 -202 199 0 18 -40 44 -66 44 -32 0 -45 -23 -51 -89 -4 -42
0 -82 13 -133 17 -64 25 -79 71 -123 60 -58 125 -87 263 -115 139 -29 148 -28
211 28 103 90 132 124 117 134 -9 7 -5 8 15 5 53 -8 26 11 -50 37 -56 19 -85
35 -110 62 -39 44 -42 58 -8 50 14 -4 25 -2 25 3 0 19 57 22 101 6 24 -9 53
-19 64 -21 11 -3 29 -9 40 -14 49 -21 134 -48 185 -60 30 -6 93 -21 139 -32
46 -10 96 -18 110 -17 33 2 63 -10 55 -23 -12 -18 30 -90 82 -142 67 -66 202
-188 221 -199 31 -18 38 -2 38 89 0 83 1 89 20 86 11 -1 45 -3 76 -3 70 -1
131 33 153 85 13 32 56 68 56 47 0 -5 19 11 43 35 23 24 65 68 92 97 164 171
223 262 259 400 14 55 26 111 27 125 1 23 3 21 13 -12 10 -31 14 -36 19 -22 4
10 7 30 7 44 1 25 1 26 12 7 16 -26 19 -45 7 -45 -5 0 -9 -13 -9 -29 0 -29
-19 -92 -45 -146 -7 -17 -18 -43 -24 -58 -6 -16 -15 -26 -20 -23 -5 4 -7 -2
-4 -12 2 -10 -3 -24 -11 -31 -9 -8 -16 -21 -16 -30 0 -9 -7 -29 -15 -44 -19
-37 -18 -130 1 -123 19 7 18 -9 -2 -28 -19 -19 -31 -85 -17 -95 13 -8 83 -213
83 -243 0 -13 4 -29 9 -37 10 -16 22 19 40 121 6 32 19 79 30 105 12 27 37
111 56 188 20 77 40 144 45 150 9 11 37 93 44 127 8 43 26 79 36 73 17 -11 11
-45 -7 -46 -14 0 -13 -2 5 -9 12 -5 25 -16 28 -25 8 -20 25 -9 18 13 -3 9 8 1
24 -18 29 -33 30 -38 26 -110 -3 -41 -7 -81 -10 -89 -8 -25 32 17 72 74 25 37
36 64 37 91 0 28 9 49 30 73 45 53 70 117 74 196 2 38 6 85 9 103 l5 33 23
-44 c13 -24 27 -59 31 -78 9 -45 27 -102 36 -113 11 -12 82 151 120 272 14 49
25 69 30 60 6 -9 9 -3 10 17 1 17 2 37 3 47 2 31 15 30 31 -3 12 -22 16 -47
13 -81 -3 -27 -1 -51 3 -54 5 -3 9 3 10 13 3 82 56 313 72 313 4 0 8 -24 8
-52 -1 -103 10 -225 35 -372 13 -82 27 -153 30 -158 4 -5 10 -40 15 -76 8 -67
1 -135 -37 -314 -13 -61 -19 -140 -7 -95 2 9 9 17 14 17 21 0 3 -33 -22 -42
-9 -4 -19 -23 -23 -45 -12 -65 -75 -219 -101 -243 -13 -12 -27 -35 -30 -51 -4
-15 -13 -33 -21 -40 -8 -6 -14 -21 -14 -32 0 -16 -66 -117 -90 -137 -3 -3 -13
-17 -23 -32 -29 -46 -39 -34 -32 40 l6 67 -23 -32 c-13 -18 -29 -33 -35 -33
-7 0 -13 -9 -13 -21 0 -11 -7 -33 -16 -49 -14 -23 -25 -28 -69 -33 -44 -4
-218 -57 -290 -87 -11 -5 -31 -12 -45 -15 -50 -13 -217 -78 -297 -116 -45 -21
-86 -39 -91 -39 -5 0 -15 -7 -22 -15 -7 -8 -33 -24 -58 -35 -26 -12 -54 -28
-64 -37 -19 -17 -25 -38 -8 -28 7 4 8 -3 4 -22 -9 -38 -13 -43 -30 -43 -11 0
-12 -4 -4 -19 5 -11 10 -30 10 -43 -1 -20 -2 -21 -11 -5 -18 31 -31 19 -24
-21 14 -86 55 -166 55 -110 0 15 -4 38 -9 51 -10 26 -4 67 9 67 11 0 60 -150
74 -227 1 -7 12 -25 24 -40 12 -15 22 -33 22 -40 0 -7 -16 -47 -36 -88 -35
-72 -72 -115 -100 -115 -7 0 -14 -4 -16 -8 -9 -24 -283 -106 -329 -99 -13 3
-33 0 -43 -5 -27 -14 -145 -38 -181 -37 -17 1 -22 3 -12 6 9 2 17 9 17 15 0 5
-7 7 -16 4 -9 -3 -29 -6 -46 -6 -23 0 -29 -4 -24 -15 4 -12 -3 -15 -36 -15
-117 0 -393 65 -477 113 -20 11 -53 29 -74 39 -20 11 -57 39 -82 63 -38 36
-45 48 -45 81 0 29 -3 35 -10 24 -8 -13 -10 -12 -10 3 0 10 5 28 11 39 9 18 9
20 -4 15 -13 -5 -16 6 -19 61 -4 72 -2 84 11 63 6 -9 10 -3 13 18 3 18 1 34
-4 37 -4 3 -8 -4 -8 -15 0 -12 -7 -21 -15 -21 -17 0 -22 65 -5 75 5 3 7 12 3
20 -3 8 0 15 7 15 10 0 10 3 0 15 -13 16 -6 203 10 260 13 46 19 111 11 124
-9 13 -145 51 -316 86 -26 6 -175 46 -195 53 -8 3 -19 6 -25 8 -126 39 -285
110 -333 148 -49 39 -107 111 -138 172 l-36 71 7 99 c6 98 26 180 52 220 7 11
27 58 43 103 38 104 49 124 108 207 26 36 51 72 57 79 15 22 -1 28 -32 12 -34
-18 -68 -51 -108 -106 -29 -40 -136 -131 -154 -131 -20 0 -173 145 -242 231
-92 114 -138 181 -191 277 -29 52 -43 70 -49 60 -24 -37 2 -203 47 -310 15
-35 37 -92 50 -127 l23 -64 -87 84 c-48 46 -91 88 -97 94 -14 16 -127 90 -150
98 -32 13 -200 50 -280 62 -27 4 -61 9 -75 12 -31 5 -131 4 -140 -2 -3 -2 -7
23 -8 55 -1 44 4 68 19 95 21 35 65 57 78 37 3 -5 23 -13 43 -17 21 -4 42 -13
49 -21 56 -68 11 135 -67 304 -25 53 -49 106 -53 117 -40 95 -50 127 -73 240
-15 75 -16 309 -2 400 6 44 13 80 14 80 2 0 4 11 5 25 2 14 6 37 9 53 32 143
38 441 12 616 -15 95 -66 268 -90 301 -6 8 -24 41 -41 72 -16 32 -33 58 -37
58 -4 0 -8 6 -8 13 0 13 -60 97 -95 133 -11 11 -42 46 -70 78 -27 32 -63 73
-79 90 -15 17 -45 51 -65 76 -20 25 -39 47 -42 50 -4 3 -26 32 -50 66 -24 33
-69 94 -100 135 -125 167 -208 341 -209 439 0 23 -3 30 -9 22 -14 -23 -23 33
-23 154 0 116 8 180 23 190 5 3 9 16 9 28 0 41 53 124 108 170 42 33 65 45
100 49 26 3 50 3 54 0 12 -6 10 -51 -2 -58 -6 -4 -8 -10 -6 -14 6 -9 -22 -142
-33 -155 -21 -26 -44 -170 -37 -240 6 -74 28 -151 42 -151 5 0 14 36 20 80 7
44 14 87 16 95 10 38 31 96 39 105 9 12 70 173 74 195 1 8 7 28 14 43 6 16 11
39 11 51 0 13 6 29 14 35 7 6 20 38 27 71 7 32 17 56 23 53 5 -4 6 3 2 18 -4
13 -10 48 -12 78 -3 33 -14 73 -29 99 -14 25 -25 52 -25 62 0 9 -15 37 -33 61
-46 61 -48 71 -26 116 23 48 49 61 106 55 35 -3 48 -11 72 -41 31 -39 75 -151
97 -246 15 -62 18 -71 52 -145 11 -25 23 -56 27 -70 4 -14 11 -29 15 -35 4 -5
13 -35 21 -65 7 -30 19 -64 26 -76 8 -12 28 -75 45 -140 36 -132 42 -248 21
-399 -6 -44 -9 -83 -6 -88 4 -7 102 89 104 103 2 18 8 41 14 60 6 18 9 20 16
9 16 -25 10 -75 -11 -94 -11 -10 -20 -24 -20 -31 0 -8 -8 -27 -18 -43 -28 -45
-21 -199 10 -241 12 -17 25 -30 30 -30 4 0 15 -11 24 -25 19 -29 8 -51 -29
-57 -30 -5 -117 64 -140 110 -31 65 -64 165 -75 232 -6 36 -19 112 -28 168
-11 66 -22 106 -31 109 -8 3 -21 19 -29 35 -20 38 -50 49 -92 31 -28 -12 -36
-12 -53 1 -20 13 -24 12 -53 -17 -30 -31 -44 -56 -80 -140 -24 -57 -23 -307 3
-362 10 -22 21 -52 24 -66 24 -97 227 -240 417 -294 63 -18 87 -32 152 -86 31
-26 32 -35 6 -70 -9 -14 -7 -23 15 -49 15 -17 27 -37 27 -44 0 -17 89 -100 98
-91 4 4 7 53 7 110 0 57 4 107 9 112 5 4 6 -10 3 -34 -6 -47 9 -59 19 -15 11
53 15 59 24 37 9 -24 19 -88 20 -125 0 -23 1 -23 31 14 38 46 49 36 49 -45 0
-30 7 -79 16 -109 10 -35 12 -55 5 -59 -7 -5 -7 -27 0 -71 15 -100 29 -227 33
-313 5 -102 51 -280 86 -337 15 -25 49 -87 76 -137 26 -51 49 -91 52 -89 2 2
-2 14 -8 26 -9 17 -8 26 4 45 9 14 16 32 16 42 0 10 7 36 15 58 8 22 14 59 15
82 0 44 43 137 83 181 l21 23 12 -42 c7 -23 10 -47 8 -54 -3 -7 0 -16 6 -20 8
-5 9 -10 2 -14 -6 -3 -13 -18 -15 -31 -2 -14 -7 -32 -10 -40 -24 -58 -57 -187
-63 -247 -6 -68 -8 -73 -30 -73 -29 0 -29 -6 -3 -95 11 -38 26 -101 33 -140 8
-38 21 -100 30 -136 8 -37 17 -79 20 -94 3 -14 9 -41 15 -58 15 -48 32 -227
34 -357 1 -90 -3 -136 -21 -213 -25 -105 -23 -120 21 -133 29 -8 89 -48 160
-106 75 -62 92 -62 27 0 -27 26 -50 53 -50 60 0 7 -9 12 -20 12 -11 0 -20 2
-20 4 0 2 -3 11 -6 20 -5 12 2 14 43 9 26 -3 71 -6 99 -7 l51 -1 -9 40 c-6 22
-11 47 -13 55 -2 8 -11 44 -19 80 -8 36 -24 105 -36 155 -12 49 -29 148 -37
220 -8 71 -17 146 -20 165 -3 19 -6 56 -6 82 -1 27 -5 48 -9 48 -5 0 -8 7 -8
16 0 13 3 14 14 5 16 -13 66 -108 66 -125 0 -6 9 -29 21 -50 32 -60 57 -152
73 -267 8 -57 14 -96 15 -87 1 10 9 22 20 27 10 6 21 20 24 32 5 18 2 20 -19
16 -13 -2 -27 0 -30 4 -3 5 2 9 10 9 9 0 19 12 22 27 10 42 14 46 34 28 13
-12 20 -13 25 -5 9 14 39 -49 49 -102 10 -55 -12 -240 -40 -326 -28 -90 -24
-100 63 -142 45 -22 84 -32 139 -37 75 -6 79 -8 115 -47 50 -54 55 -78 27
-124 -12 -20 -22 -39 -22 -42 1 -3 0 -9 -1 -15 -4 -16 -85 -308 -95 -340 -48
-162 -35 -221 68 -316 92 -84 169 -127 282 -156 92 -24 103 -25 324 -19 155 4
242 2 265 -5 54 -17 126 -56 126 -69 0 -6 8 -17 17 -24 10 -7 15 -16 12 -19
-4 -3 10 -25 31 -49 20 -24 48 -61 61 -83 35 -60 113 -221 120 -250 3 -14 15
-31 25 -39 10 -7 24 -27 30 -44 6 -18 15 -32 20 -32 11 0 2 223 -11 270 -5 19
-16 58 -23 85 -8 28 -11 52 -6 53 5 2 9 15 9 29 0 44 -105 141 -207 192 -125
63 -177 71 -435 64 -259 -7 -342 3 -432 54 -87 49 -130 87 -171 149 -44 67
-44 66 9 286 3 9 9 26 15 37 6 11 11 32 11 48 1 75 120 280 171 296 9 2 23 30
33 63 10 32 21 68 25 79 5 11 0 48 -10 90 -10 38 -19 93 -19 122 0 58 -12 98
-32 105 -7 3 -40 2 -73 -3 -33 -4 -91 -10 -130 -12 -108 -8 -137 15 -195 152
-17 39 -57 117 -90 175 -33 57 -60 116 -60 131 0 22 -3 25 -14 16 -11 -9 -19
-1 -41 43 -15 30 -39 67 -54 84 -28 30 -46 58 -107 165 -38 65 -34 91 12 103
35 9 113 -23 124 -50 7 -19 71 -78 109 -100 19 -12 5 28 -28 79 -14 22 -24 45
-23 52 3 14 -56 103 -69 103 -5 0 -14 11 -19 24 -6 16 -19 25 -40 28 -17 3
-33 1 -36 -4 -11 -18 -33 -6 -55 30 -12 20 -24 39 -27 42 -2 3 -14 -8 -27 -24
-23 -29 -23 -29 -24 -5 0 13 -2 39 -4 57 -2 17 0 32 5 32 5 0 3 6 -5 14 -19
19 -22 130 -6 219 12 64 13 66 30 51 10 -9 23 -33 30 -53 6 -20 17 -43 23 -51
19 -25 49 -93 52 -120 5 -43 26 -110 36 -117 6 -3 13 -1 17 5 10 16 60 2 67
-20 3 -10 0 -25 -6 -33 -14 -17 5 -58 43 -93 l24 -23 12 61 c7 33 16 60 20 60
21 0 79 -71 108 -130 47 -95 62 -174 67 -360 3 -131 8 -173 22 -203 10 -20 21
-37 25 -37 4 0 15 -3 23 -6 12 -4 15 -2 10 9 -4 12 3 14 40 10 43 -5 46 -4 47
18 1 13 0 29 -1 34 -1 6 -3 16 -3 23 0 6 -8 12 -17 12 -9 0 -24 8 -33 18 -16
17 -15 18 19 18 23 0 41 6 49 18 7 9 16 13 19 8 3 -6 0 -12 -8 -15 -23 -9 -8
-42 24 -54 23 -9 39 -31 79 -114 44 -91 76 -169 96 -233 4 -14 9 -16 17 -8 12
12 6 41 -39 166 -20 58 -24 81 -15 84 7 2 10 8 6 13 -3 5 0 9 6 9 6 0 8 5 5
10 -3 6 -11 10 -16 10 -6 0 -8 -4 -4 -9 3 -5 1 -12 -4 -15 -5 -3 -17 20 -27
51 -9 32 -28 80 -41 107 -13 28 -23 55 -23 60 0 6 -11 16 -25 23 -21 9 -25 9
-25 -4 0 -17 -24 -43 -39 -43 -41 0 9 80 83 131 26 19 55 42 64 52 9 9 24 17
34 17 16 0 16 3 2 35 -16 38 -19 65 -6 49 9 -9 32 -84 32 -101 0 -6 -18 -18
-41 -28 -22 -10 -51 -32 -64 -47 l-25 -29 61 -117 c73 -141 91 -159 123 -127
14 14 17 11 36 -27 11 -24 45 -86 74 -138 30 -52 75 -135 100 -185 71 -139 83
-158 126 -200 52 -51 51 -29 -4 48 -23 35 -48 79 -55 99 -7 20 -18 41 -25 48
-8 6 -17 27 -21 47 -4 21 -27 68 -51 105 -24 38 -44 71 -44 74 0 3 -6 20 -14
37 -20 45 -48 148 -42 155 3 2 8 -4 12 -14 10 -31 55 -133 112 -254 25 -54 78
-140 105 -171 7 -8 12 -20 10 -25 -2 -6 10 -25 27 -44 16 -18 32 -41 35 -50 4
-13 43 -40 58 -40 2 0 1 16 -1 36 -4 30 -2 35 14 32 11 -2 20 4 22 16 3 14 0
17 -11 13 -12 -4 -15 0 -13 19 2 13 5 27 8 30 4 3 0 21 -8 40 -8 19 -12 34 -8
34 3 0 -4 13 -16 30 -12 17 -19 30 -15 30 3 0 -1 12 -9 28 -8 15 -29 59 -47
97 -18 39 -35 72 -39 75 -3 3 -9 13 -13 23 -17 45 -141 217 -191 266 -31 29
-56 57 -56 61 0 5 -6 15 -14 23 -8 8 -26 41 -39 73 -14 32 -41 93 -61 134 -19
42 -38 95 -42 118 -3 23 -10 39 -15 36 -4 -2 -6 -11 -2 -19 3 -10 -1 -15 -12
-15 -14 0 -15 -7 -10 -44 8 -53 -7 -67 -32 -29 -26 40 -125 230 -182 352 -9
19 -38 51 -66 72 -95 73 -106 84 -127 119 -12 19 -48 64 -81 100 -32 36 -66
73 -75 82 -8 10 -30 18 -48 18 -41 0 -48 11 -63 95 -7 38 -18 76 -24 84 -15
18 -14 249 2 308 11 40 83 142 163 230 39 43 48 82 28 113 -8 12 -10 10 -10
-11 0 -31 -26 -56 -107 -103 -34 -20 -97 -71 -140 -114 -71 -71 -80 -85 -101
-151 -12 -41 -32 -86 -42 -101 -11 -16 -20 -32 -20 -37 0 -4 -9 -21 -19 -37
l-19 -29 4 39 c14 111 16 187 6 180 -6 -3 -20 8 -33 25 -21 30 -21 34 -9 137
6 59 16 120 21 136 7 23 6 27 -6 22 -18 -7 -18 -2 -1 49 36 102 61 143 124
208 37 38 75 73 84 78 34 18 65 -2 132 -86 l66 -84 46 26 c44 25 47 25 80 9
19 -9 41 -16 48 -16 21 0 105 -80 112 -106 6 -24 14 -28 48 -24 46 5 143 -41
130 -61 -9 -15 13 -10 26 6 17 20 26 19 50 -7 30 -32 25 -41 -19 -35 l-39 5
-10 -77 c-5 -42 -8 -78 -6 -80 2 -2 14 3 27 12 24 15 60 14 83 -4 14 -11 82 8
117 33 23 17 47 54 49 78 0 3 -21 16 -48 30 -48 25 -68 51 -78 100 -12 56
-155 208 -295 312 -94 69 -230 118 -331 118 -99 0 -149 -28 -275 -154 -100
-100 -135 -126 -121 -91 3 9 13 41 22 73 8 31 18 64 21 72 11 28 14 45 23 145
5 55 9 103 10 107 0 4 14 24 32 43 l31 37 -39 -8 c-57 -11 -105 -32 -136 -62
-32 -30 -46 -23 -30 13 7 14 12 34 12 43 1 9 9 35 20 57 11 22 19 44 20 48 0
4 14 37 30 72 17 35 30 67 30 69 0 3 15 29 34 59 44 68 65 84 196 147 156 75
326 107 590 111 52 1 112 4 132 8 l38 6 -111 113 c-92 93 -109 116 -104 135
23 81 45 100 142 123 68 16 325 18 389 4 27 -7 54 -13 59 -14 23 -5 174 -81
224 -113 74 -48 282 -222 362 -305 36 -37 70 -82 75 -100 17 -58 31 -43 38 39
20 231 18 270 -28 518 -13 69 -13 70 -26 40 -8 -19 -15 -97 -18 -212 -2 -101
-8 -183 -13 -183 -5 0 -9 4 -9 8 0 5 -89 97 -197 205 -244 243 -230 229 -586
551 -59 54 -112 107 -118 117 -16 30 -36 22 -65 -26 -23 -40 -25 -52 -19 -103
3 -31 9 -66 11 -77 5 -20 1 -20 -176 -17 -171 3 -180 3 -180 -15 0 -11 18 -32
41 -49 62 -44 89 -70 82 -77 -3 -4 2 -7 13 -8 27 -1 -109 -38 -185 -50 -74
-11 -97 -24 -80 -45 6 -8 8 -14 3 -14 -5 0 -4 -4 3 -8 6 -4 15 -21 19 -37 l7
-30 -24 21 c-13 12 -30 19 -36 17 -19 -7 -16 -23 5 -24 10 0 12 -3 5 -6 -18
-7 -16 -24 4 -38 25 -19 6 -38 -33 -32 -32 5 -33 5 -22 -19 9 -20 9 -27 -2
-34 -16 -10 -6 -40 15 -40 18 0 20 -14 3 -28 -12 -9 -47 -15 -168 -28 -152
-16 -246 -47 -328 -107 -33 -25 -92 -99 -92 -117 0 -5 -4 -10 -8 -10 -13 0
-67 -132 -113 -275 -18 -55 -36 -104 -42 -110 -6 -7 -7 -1 -3 15 3 14 11 109
16 211 11 212 39 619 45 664 22 146 69 556 85 740 5 61 17 160 25 220 9 61 18
128 21 150 8 62 33 167 48 200 13 28 24 79 46 220 5 33 12 77 15 98 3 20 10
37 15 37 6 0 10 13 10 30 0 16 7 55 16 87 9 32 31 114 50 183 18 69 40 148 48
175 42 143 54 183 64 201 15 27 41 99 62 169 31 104 60 150 139 219 l53 47 29
-32 c32 -36 36 -49 15 -49 -16 0 -28 -79 -15 -94 6 -6 9 -4 9 6 0 22 76 88
101 88 36 0 18 -30 -57 -94 -39 -34 -79 -73 -88 -88 -21 -35 -52 -132 -62
-194 -4 -27 -11 -60 -16 -74 -12 -33 -20 -277 -9 -264 5 5 14 52 21 104 6 52
13 104 14 115 2 11 4 31 5 44 0 13 4 22 7 19 5 -6 12 -161 14 -323 1 -49 -4
-112 -9 -140 -6 -27 -16 -75 -22 -105 -6 -30 -19 -64 -30 -76 -10 -11 -19 -32
-19 -47 0 -33 -18 -45 -24 -15 -12 61 -13 112 -1 167 21 100 1 69 -23 -36 -26
-113 -40 -187 -52 -292 -18 -145 -31 -85 -25 114 5 162 17 252 40 302 8 17 15
45 15 61 0 17 4 32 8 34 12 5 51 128 41 128 -5 0 -9 -6 -9 -14 0 -7 -9 -24
-20 -38 -27 -35 -87 -265 -96 -368 -7 -76 -25 -203 -34 -235 -5 -16 -11 -54
-14 -84 -4 -29 -13 -81 -22 -115 -9 -33 -17 -77 -19 -96 -7 -66 -25 -170 -35
-195 -6 -15 -10 -37 -10 -50 0 -14 -11 -57 -24 -97 -13 -40 -27 -89 -30 -108
-3 -19 -8 -45 -11 -58 -2 -13 -4 -45 -5 -73 0 -27 0 -73 0 -101 -1 -60 -9 -96
-52 -225 -35 -108 -31 -139 28 -191 66 -59 112 -36 221 111 67 91 151 194 242
293 56 62 174 164 190 164 6 0 11 4 11 9 0 15 136 101 297 186 l82 44 68 -19
c88 -24 215 -69 227 -81 6 -5 16 -9 23 -9 44 0 314 -161 413 -247 86 -74 134
-113 140 -113 11 0 20 27 20 59 0 30 -48 280 -56 293 -3 5 7 1 23 -9 33 -20
119 -110 161 -169 28 -39 144 -270 177 -354 9 -25 21 -54 26 -65 19 -45 69
-212 71 -235 0 -3 5 -16 10 -30 18 -45 37 -134 38 -175 0 -22 4 -56 10 -75 5
-19 16 -120 25 -225 9 -104 20 -194 24 -198 5 -5 11 11 15 34 4 24 11 48 17
55 5 7 12 23 14 35 3 13 7 35 9 49 3 14 8 43 11 64 26 186 110 443 216 661 27
57 49 105 49 108 0 3 19 36 42 73 23 38 62 110 88 159 79 154 110 196 198 263
39 30 45 27 27 -13 -30 -68 -38 -151 -21 -220 2 -11 5 -23 5 -27 2 -22 34 -2
72 45 60 72 236 244 297 289 54 40 130 86 210 126 33 17 51 27 107 52 28 13
59 27 69 33 29 14 72 26 154 42 56 11 79 12 100 3 37 -16 144 -80 162 -97 8
-8 47 -35 85 -60 39 -24 97 -66 130 -92 33 -27 79 -63 103 -81 23 -18 84 -73
135 -123 83 -81 110 -112 142 -164 28 -45 52 -78 67 -95 10 -11 18 -23 18 -26
0 -8 129 -114 157 -128 90 -48 126 38 80 189 -22 71 -34 138 -42 244 -1 11 -5
27 -8 35 -3 8 -8 44 -11 80 -5 66 -31 177 -67 286 -11 33 -21 69 -24 80 -2 10
-13 51 -23 89 -11 39 -27 97 -36 130 -9 33 -21 71 -27 85 -6 14 -17 48 -24 75
-7 28 -26 88 -43 135 -17 47 -40 119 -51 160 -23 89 -88 288 -101 312 -21 38
-60 213 -60 270 0 34 -6 72 -15 86 -14 27 -43 172 -66 330 -7 54 -18 90 -31
105 l-19 22 6 -32 c11 -56 -13 -45 -26 12 -11 49 -53 140 -139 303 -12 23 -29
42 -37 42 -8 0 -24 11 -35 25 -11 14 -25 25 -33 25 -16 0 -37 25 -29 33 4 4
10 5 14 2 3 -2 55 -7 114 -10z m-4133 -255 c28 -27 48 -58 52 -78 8 -41 -16
-148 -42 -183 -11 -14 -26 -42 -34 -62 -9 -19 -33 -62 -54 -95 -22 -33 -50
-81 -64 -106 -13 -25 -26 -46 -29 -46 -14 0 -27 65 -25 126 1 50 8 83 26 119
33 69 71 124 89 130 8 3 28 23 43 45 36 51 31 84 -29 162 -23 31 -40 59 -37
62 8 8 54 -24 104 -74z m5703 10 c21 -1 21 -1 1 -16 -11 -8 -27 -20 -35 -27
-8 -6 -28 -19 -44 -27 -44 -22 -158 -140 -152 -156 3 -8 1 -14 -5 -14 -5 0
-14 -12 -20 -27 -7 -16 -17 -39 -23 -52 -17 -38 -12 -131 10 -173 42 -80 86
-147 125 -192 23 -26 39 -49 36 -52 -7 -7 -76 16 -97 31 -8 6 -28 17 -43 23
-84 36 -132 106 -163 237 -28 122 -4 267 54 328 68 71 224 133 306 121 16 -2
38 -4 50 -4z m-5784 -140 c-46 -38 -65 -38 -22 0 18 17 38 30 44 30 7 0 -3
-13 -22 -30z m540 26 c0 -2 -20 -16 -45 -30 -30 -18 -42 -31 -39 -41 4 -8 2
-15 -4 -15 -5 0 -12 7 -16 15 -3 8 -12 15 -21 15 -8 0 -15 6 -15 13 0 8 13 13
36 13 19 0 38 5 42 11 10 15 62 31 62 19z m0 -66 c-12 -17 -26 -28 -31 -24
-16 9 15 54 38 54 11 0 9 -7 -7 -30z m-1353 -22 c-3 -8 -6 -5 -6 6 -1 11 2 17
5 13 3 -3 4 -12 1 -19z m1253 -9 c0 -5 -4 -9 -10 -9 -5 0 -10 7 -10 16 0 8 5
12 10 9 6 -3 10 -10 10 -16z m3917 -176 c-2 -32 -3 -6 -3 57 0 63 1 89 3 58 2
-32 2 -84 0 -115z m-85 135 c6 -13 11 -32 10 -44 -2 -11 2 -40 8 -65 6 -24 15
-93 20 -154 11 -154 31 -298 41 -309 5 -6 9 -21 9 -35 0 -40 28 -164 45 -202
l16 -34 -6 31 c-3 16 -8 57 -10 90 -3 32 -9 86 -14 119 -5 33 -5 64 -1 69 5 5
4 20 -1 33 -5 14 -7 28 -4 33 4 6 15 116 16 160 0 8 3 38 6 65 l6 50 24 -85
c13 -47 26 -112 28 -145 3 -33 8 -67 11 -75 3 -8 12 -53 19 -100 17 -101 60
-307 71 -334 5 -14 3 -17 -7 -14 -8 3 -16 13 -17 22 -6 27 -39 56 -57 50 -9
-4 -22 1 -30 12 -24 33 -28 7 -6 -36 11 -22 21 -49 21 -60 0 -10 5 -22 10 -25
6 -4 8 -11 4 -16 -3 -5 -1 -16 5 -23 7 -8 11 -18 10 -22 -1 -5 3 -22 9 -37 16
-37 15 -37 -8 -37 -13 0 -24 10 -31 28 -10 27 -84 131 -128 180 l-24 27 7 -58
c4 -37 2 -56 -4 -52 -18 11 -11 -8 13 -33 17 -20 18 -24 5 -19 -10 4 -18 4
-18 1 0 -10 43 -68 67 -91 13 -12 23 -29 23 -38 0 -24 -35 2 -68 50 -15 22
-32 45 -38 52 -17 18 -80 134 -89 163 -4 14 -26 52 -48 85 l-39 60 6 -70 6
-70 -30 63 c-46 94 -47 83 -7 -58 21 -75 68 -177 151 -325 25 -44 57 -102 71
-130 15 -27 44 -76 66 -107 21 -32 39 -61 39 -65 0 -5 14 -24 31 -43 16 -19
36 -48 44 -65 8 -16 39 -57 70 -90 65 -70 82 -95 63 -95 -7 0 -65 22 -128 49
-280 121 -380 156 -625 225 -130 37 -175 57 -181 83 -6 22 -2 88 12 195 2 20
6 56 8 80 3 23 12 77 20 118 9 41 17 89 18 107 1 18 5 30 10 27 4 -3 8 1 8 8
0 7 18 81 41 163 36 134 51 179 79 250 5 11 11 38 15 60 9 58 15 76 25 70 12
-8 37 52 43 102 5 44 88 223 112 243 12 10 15 8 15 -10 0 -29 11 -19 27 23 21
58 15 -8 -8 -85 -11 -38 -19 -77 -17 -86 4 -19 78 123 78 149 0 22 38 69 55
69 8 0 20 -10 27 -22z m-4943 -303 c28 -64 78 -130 109 -146 15 -7 39 -23 53
-34 61 -47 83 -61 132 -87 49 -26 58 -27 169 -24 99 2 117 0 121 -13 2 -9 -18
-70 -44 -136 -26 -66 -61 -163 -77 -215 -27 -88 -38 -126 -87 -325 -11 -43
-21 -138 -26 -245 -8 -185 -19 -300 -27 -300 -16 0 -31 41 -32 83 0 30 -4 46
-10 42 -6 -4 -10 -60 -11 -133 0 -70 -2 -122 -4 -117 -5 13 -14 130 -21 270
-3 74 -11 121 -22 143 -19 37 -32 41 -32 11 0 -11 -7 -46 -16 -77 -9 -30 -22
-130 -28 -221 l-12 -166 -8 89 c-11 113 -2 209 30 327 32 115 42 265 32 449
-8 142 -4 201 17 235 12 18 26 74 39 152 6 34 -16 52 -39 33 -9 -8 -14 -7 -17
2 -3 9 -31 5 -114 -15 l-109 -28 -27 30 c-26 29 -56 44 -57 29 -3 -28 1 -38
13 -38 19 0 29 -17 16 -25 -6 -4 -31 14 -55 40 -40 40 -50 63 -47 100 1 12 41
154 49 175 3 8 5 18 5 22 -1 4 7 24 18 43 11 20 20 40 20 46 0 19 44 69 61 69
12 0 25 -16 38 -45z m6019 -181 c49 -55 104 -111 121 -125 18 -13 43 -34 55
-46 13 -13 28 -23 33 -23 5 0 24 -16 43 -35 19 -19 38 -35 43 -35 16 0 147
-148 147 -166 0 -5 6 -21 14 -35 13 -25 45 -116 47 -131 0 -4 5 -22 10 -40 17
-56 20 -71 29 -143 12 -94 12 -265 1 -301 -6 -16 -12 -52 -14 -80 -3 -28 -12
-75 -21 -105 -27 -95 -64 -233 -71 -267 -8 -37 -45 -277 -48 -306 -3 -27 39
-37 163 -36 58 1 118 1 133 1 16 0 43 -9 61 -21 55 -33 50 -9 -5 27 -33 22
-58 31 -71 28 -12 -4 -18 -2 -16 6 2 8 -11 13 -37 14 -22 1 -65 9 -95 18 -50
15 -56 20 -67 55 -7 21 -9 49 -6 62 6 22 7 21 20 -14 7 -21 11 -42 8 -46 -11
-18 37 -42 93 -47 86 -8 155 17 187 67 32 50 45 58 45 25 0 -14 11 -51 25 -81
14 -30 25 -61 25 -69 0 -7 5 -17 10 -20 6 -3 10 -13 10 -22 0 -8 25 -57 55
-109 30 -51 60 -105 66 -120 14 -39 103 -140 174 -199 64 -53 127 -89 200
-111 85 -27 151 -24 140 5 -14 34 -23 71 -18 71 3 0 -1 8 -10 18 -9 10 -20 33
-23 50 -9 46 20 43 42 -5 10 -21 28 -54 40 -73 28 -43 57 -142 85 -284 22
-113 22 -167 3 -524 -6 -118 -6 -124 12 -120 12 2 32 29 54 73 l35 70 3 -74
c2 -62 -22 -254 -54 -416 -36 -184 -45 -228 -60 -275 -9 -30 -24 -87 -34 -126
-10 -39 -23 -81 -30 -93 -6 -12 -13 -31 -15 -41 -6 -30 -121 -332 -145 -379
-14 -27 -68 -143 -93 -201 -28 -62 -173 -289 -244 -383 -62 -82 -171 -195
-196 -203 -35 -11 -39 11 -7 46 16 17 30 38 30 46 0 8 4 22 10 32 14 26 80
172 80 178 0 3 19 44 41 92 23 48 48 105 56 127 27 75 14 212 -23 250 -30 29
-107 19 -194 -26 -78 -40 -110 -76 -110 -123 0 -9 -17 -40 -39 -69 -21 -29
-49 -72 -61 -95 -12 -24 -23 -42 -26 -39 -3 2 9 55 25 118 26 101 43 218 67
469 19 192 1 407 -42 492 -16 31 -13 68 12 153 l17 60 16 -36 c17 -37 91 -149
99 -149 3 0 2 17 -1 37 -8 44 9 171 24 190 16 19 29 16 29 -6 0 -11 5 -23 10
-26 13 -8 13 -58 -1 -72 -7 -7 -2 -17 20 -32 17 -13 31 -31 31 -42 0 -27 23
-69 50 -94 30 -27 80 -103 96 -145 12 -34 13 -34 13 37 1 84 -32 185 -78 243
-16 20 -32 50 -35 67 -7 29 -2 38 40 83 60 64 100 68 59 6 -14 -21 -14 -28 5
-75 11 -29 20 -66 20 -84 0 -18 13 -60 29 -95 23 -52 29 -60 34 -42 5 20 10
22 41 16 40 -8 46 2 16 29 -11 10 -22 33 -26 51 -10 52 -28 100 -38 99 -16 0
-23 49 -12 83 15 42 81 110 126 128 111 44 184 247 140 385 -11 34 -20 67 -20
74 0 7 -16 32 -35 55 -20 24 -35 35 -35 27 0 -23 -13 -28 -50 -17 -41 12 -46
8 -26 -22 25 -39 23 -79 -10 -128 -29 -46 -62 -79 -77 -80 -23 -1 -83 -78
-143 -185 -9 -16 -23 -35 -31 -43 -8 -8 -21 -25 -30 -38 -8 -13 -23 -24 -33
-24 -10 0 -20 -9 -23 -19 -4 -16 -10 -18 -33 -12 -22 6 -40 2 -76 -18 -25 -14
-50 -22 -54 -18 -5 4 29 44 74 88 44 44 98 103 119 130 20 27 41 49 45 49 4 0
33 44 65 98 50 84 58 105 61 159 6 96 -10 136 -129 323 -39 61 -87 158 -117
235 -37 95 -88 405 -69 424 11 11 0 51 -15 51 -6 0 -21 12 -34 26 -19 20 -32
25 -60 22 -37 -3 -35 -2 -90 -108 -18 -37 -37 -195 -30 -249 4 -25 6 -53 6
-61 0 -8 -1 -25 -2 -36 0 -12 10 -35 22 -51 11 -16 22 -37 24 -46 1 -9 11 -27
23 -39 27 -30 73 -118 73 -140 0 -9 4 -19 8 -22 20 -12 37 -158 37 -307 0
-135 -2 -160 -17 -176 -10 -11 -18 -24 -18 -29 -1 -15 -102 -131 -144 -164
-22 -17 -51 -33 -65 -37 -14 -3 -37 -14 -51 -24 -66 -49 -288 -91 -357 -68
-18 6 -33 14 -33 19 0 7 65 33 167 65 28 9 71 29 95 45 24 16 48 30 53 30 6 0
24 11 40 25 l30 24 -77 1 c-120 0 -205 27 -294 91 -66 48 -241 239 -219 239 3
0 33 -13 66 -30 69 -34 148 -59 167 -53 7 3 18 0 25 -5 7 -6 19 -7 26 -3 10 7
4 23 -28 72 -23 35 -44 75 -48 89 -3 14 -12 32 -19 40 -23 27 -28 93 -9 130
28 55 103 152 172 223 36 37 60 67 54 67 -6 0 -11 6 -11 13 0 7 -47 38 -105
68 -58 30 -107 61 -110 69 -2 8 -11 78 -20 155 -19 174 -32 281 -39 320 -19
105 -57 336 -61 368 -2 21 -7 42 -10 47 -4 6 -1 10 4 10 6 0 11 -5 11 -12 0
-6 3 -8 7 -4 4 4 7 38 6 74 0 37 1 52 4 35 2 -20 10 -33 19 -33 8 0 17 -7 20
-15 9 -22 19 -18 32 11 7 14 17 22 22 19 7 -4 9 2 4 19 -4 17 -2 26 5 26 7 0
11 6 10 13 -2 13 0 20 41 127 45 116 55 201 35 312 -9 51 -19 109 -22 128 -3
19 -9 40 -13 45 -7 9 -25 78 -35 131 -2 11 -4 21 -5 24 -1 3 -2 13 -1 23 1 9
-2 17 -8 17 -7 0 -18 29 -26 70 -8 45 -93 339 -109 380 -29 72 -66 170 -66
176 0 4 18 -20 39 -52 22 -33 80 -104 129 -160z m-4828 146 c11 -11 20 -26 20
-33 0 -15 75 -134 122 -195 18 -23 52 -56 75 -73 49 -35 84 -79 103 -129 7
-19 23 -46 35 -60 38 -46 90 -177 131 -333 16 -61 20 -172 9 -223 -5 -22 -4
-25 4 -14 6 8 11 25 11 38 0 34 18 17 30 -29 6 -22 18 -43 26 -46 21 -8 18
-76 -3 -95 -23 -20 -165 -100 -265 -150 -42 -20 -101 -52 -130 -70 -29 -19
-66 -38 -83 -44 -16 -6 -61 -24 -100 -39 -38 -15 -79 -31 -90 -35 -11 -5 -66
-29 -123 -55 -108 -49 -138 -52 -85 -7 17 15 38 41 46 58 9 17 31 49 49 71 64
78 78 97 78 109 0 7 11 25 24 41 13 15 31 42 40 58 9 17 27 48 41 70 13 22 24
46 25 53 0 7 11 37 24 65 13 29 27 63 31 77 4 14 14 34 21 45 13 18 14 15 14
-28 l0 -48 28 33 c17 19 32 50 35 73 l6 40 -23 -38 c-33 -53 -33 -53 -35 3 -1
58 23 126 50 141 11 5 19 17 20 27 0 14 2 14 9 -3 6 -14 9 -15 10 -5 1 8 3 22
5 30 2 8 8 42 14 75 6 33 15 80 20 105 13 62 -3 73 -19 13 -13 -48 -34 -86
-23 -42 14 58 -16 -3 -43 -86 -30 -94 -60 -155 -75 -155 -5 0 -9 -5 -9 -11 0
-7 -18 -49 -39 -94 -31 -64 -46 -85 -70 -95 -16 -6 -37 -23 -46 -37 -9 -14
-19 -22 -22 -19 -5 5 28 75 78 162 25 45 24 54 -3 49 -13 -2 -56 -39 -96 -82
-54 -58 -72 -72 -67 -53 6 25 6 25 -11 5 -9 -11 -27 -42 -40 -70 l-23 -50 6
45 c3 25 9 50 13 55 4 6 13 27 20 48 7 22 18 51 26 65 18 35 18 51 -1 26 -8
-10 -15 -14 -15 -9 -2 22 -30 -59 -31 -89 -1 -19 -3 -24 -6 -12 -9 35 30 328
47 351 13 17 60 180 65 226 3 24 7 55 10 69 2 14 7 86 10 159 7 161 10 179 38
184 54 10 88 6 107 -13z m-1016 -391 c-9 -15 -84 -49 -108 -49 -30 0 -8 15 54
38 66 25 63 25 54 11z m-190 -32 c3 3 6 1 6 -6 0 -16 -42 -10 -48 7 -3 11 0
12 16 3 10 -6 22 -7 26 -4z m41 3 c3 -5 -1 -10 -10 -10 -9 0 -13 5 -10 10 3 6
8 10 10 10 2 0 7 -4 10 -10z m165 0 c0 -5 -5 -10 -11 -10 -5 0 -7 5 -4 10 3 6
8 10 11 10 2 0 4 -4 4 -10z m-688 -106 c3 -21 11 -50 16 -64 11 -28 70 -90 86
-90 5 0 17 -6 25 -14 17 -14 106 -28 116 -18 3 3 24 7 46 8 22 1 48 9 58 18
24 21 48 20 78 -4 14 -11 33 -20 42 -20 30 0 59 -29 76 -77 30 -84 36 -116 44
-223 12 -152 -11 -257 -89 -412 -77 -152 -94 -211 -88 -303 8 -122 68 -195
160 -195 81 0 118 56 118 177 0 74 23 243 33 243 5 0 7 -6 4 -13 -3 -8 -8 -81
-12 -163 -12 -284 -21 -370 -50 -524 -16 -87 -29 -220 -29 -303 l0 -59 -23 45
c-21 41 -95 117 -115 117 -5 0 -13 10 -18 23 -5 13 -9 16 -9 7 -1 -20 -65 -54
-85 -47 -9 4 -16 18 -16 33 0 19 -4 25 -15 20 -9 -3 -24 0 -35 6 -23 14 -18
19 -63 -64 -31 -56 -37 -76 -37 -127 0 -58 13 -82 23 -43 4 14 5 13 6 -4 0
-11 6 -25 13 -32 9 -9 9 -12 0 -12 -8 0 -11 -16 -9 -53 6 -92 65 -203 68 -127
3 61 6 85 13 103 6 12 4 17 -9 17 -9 0 -13 5 -10 10 4 6 1 18 -7 27 -11 15
-10 16 10 11 20 -6 22 -2 22 28 0 37 14 45 28 17 5 -10 14 -52 21 -93 7 -41
22 -100 33 -130 11 -30 25 -78 32 -107 13 -59 25 -78 28 -42 1 13 2 33 3 44 1
11 3 29 4 39 1 20 1 20 16 0 13 -17 15 -11 16 71 4 160 17 285 29 285 14 0 21
-55 12 -81 -8 -20 14 -210 42 -366 18 -98 6 -193 -34 -274 -16 -30 -35 -89
-44 -131 -14 -66 -14 -81 -2 -110 8 -18 17 -59 21 -91 6 -50 9 -56 20 -40 7
10 16 34 20 53 7 34 110 250 119 250 1 0 -4 -37 -11 -82 -14 -89 -12 -263 5
-280 6 -6 15 -3 26 7 21 22 44 16 64 -17 15 -25 15 -30 -2 -65 -10 -21 -25
-72 -33 -113 -7 -41 -16 -86 -19 -100 -3 -14 -7 -49 -11 -77 -3 -29 -9 -53
-14 -53 -5 0 -9 6 -9 13 0 6 -14 30 -30 51 -17 22 -30 48 -30 58 0 10 -6 21
-14 24 -8 3 -18 24 -21 47 -4 23 -11 47 -15 52 -5 6 -18 37 -30 70 -13 33 -44
105 -70 160 -26 55 -50 111 -54 125 -4 14 -11 34 -15 45 -39 95 -68 192 -96
330 -13 61 -85 276 -96 285 -3 3 -13 25 -22 50 -25 72 -76 192 -97 231 -11 20
-17 39 -14 42 3 3 0 16 -7 29 -7 12 -13 26 -14 30 0 3 -3 10 -7 14 -5 4 -8 17
-8 28 0 12 -7 41 -15 65 -13 36 -14 63 -5 170 15 193 20 232 37 291 8 30 25
92 37 137 14 56 25 81 34 78 14 -5 16 7 2 21 -6 6 -1 27 15 59 13 28 25 60 25
73 0 27 18 64 35 74 7 4 25 31 40 60 15 29 32 56 37 59 10 6 43 80 75 164 8
22 18 68 20 102 5 57 3 66 -26 112 -23 35 -43 54 -72 65 -45 18 -84 22 -59 6
22 -14 -18 -13 -77 2 -51 13 -66 25 -58 46 5 15 -11 16 -21 1 -3 -6 -9 -26
-11 -45 -4 -28 -1 -34 13 -34 16 0 15 -2 -4 -16 -13 -9 -25 -14 -27 -13 -10
12 -7 69 5 84 12 15 12 16 -6 13 -16 -2 -19 2 -17 27 2 28 1 27 -20 -14 -25
-50 -40 -57 -45 -21 -2 13 -13 30 -23 38 -24 16 -26 84 -4 102 11 9 15 34 15
95 0 97 8 147 24 142 6 -2 14 -21 18 -43z m5512 -70 c3 -8 2 -12 -4 -9 -6 3
-10 10 -10 16 0 14 7 11 14 -7z m-3644 -14 c0 -5 -5 -10 -11 -10 -5 0 -7 5 -4
10 3 6 8 10 11 10 2 0 4 -4 4 -10z m3877 -52 c-3 -8 -6 -5 -6 6 -1 11 2 17 5
13 3 -3 4 -12 1 -19z m-5512 -28 c8 -13 -5 -13 -25 0 -13 8 -13 10 2 10 9 0
20 -4 23 -10z m-125 -290 c0 -6 11 -22 25 -36 24 -24 25 -28 16 -87 -5 -34
-14 -82 -20 -107 -13 -59 -14 -157 -1 -165 6 -3 10 2 11 12 0 16 1 16 9 -2 13
-31 12 -36 -12 -30 -20 5 -26 -1 -42 -42 -11 -26 -22 -50 -25 -53 -3 -3 -11
-14 -17 -24 -34 -63 -66 -38 -85 65 -12 69 -5 234 11 244 5 3 6 13 3 22 -4 11
-2 14 8 11 10 -3 20 14 35 61 20 61 22 64 29 38 12 -45 39 -31 43 23 3 36 1
43 -9 33 -7 -7 -17 -13 -21 -13 -14 0 -9 28 8 44 18 18 34 21 34 6z m7891 -40
c40 -22 7 -48 -36 -28 -19 9 -22 14 -14 25 14 16 24 16 50 3z m-8636 -178 c-8
-8 -25 17 -25 38 0 9 6 6 16 -8 9 -13 13 -26 9 -30z m63 -50 c6 -18 -15 -14
-22 4 -4 10 -1 14 6 12 6 -2 14 -10 16 -16z m762 -122 c0 -5 -4 -10 -10 -10
-5 0 -10 5 -10 10 0 6 5 10 10 10 6 0 10 -4 10 -10z m550 -100 c0 -11 -4 -20
-9 -20 -5 0 -7 9 -4 20 3 11 7 20 9 20 2 0 4 -9 4 -20z m7055 3 c49 -8 73 -24
84 -55 16 -46 0 -70 -68 -102 -46 -23 -61 -35 -61 -51 0 -12 -11 -36 -25 -55
-14 -19 -25 -39 -25 -45 0 -7 -9 -20 -21 -31 -18 -16 -18 -20 -5 -30 14 -9 14
-13 1 -30 -34 -44 -63 -93 -58 -98 11 -10 60 19 101 61 23 24 46 43 51 43 30
0 37 -201 10 -252 -11 -20 -13 -20 -24 -5 -14 20 -41 22 -48 5 -4 -8 -6 -7 -6
3 -1 10 -13 19 -31 22 -39 8 -133 103 -165 168 -14 27 -25 66 -25 87 0 49 45
190 70 217 9 11 25 34 33 50 32 63 123 122 167 108 8 -2 29 -7 45 -10z m-7510
-1014 c4 -12 1 -27 -8 -37 -8 -9 -17 -24 -21 -32 -3 -8 -4 0 -1 19 3 18 5 42
5 52 0 25 17 24 25 -2z m-720 -39 c-9 -18 -19 -30 -22 -27 -3 3 3 19 13 36 23
39 30 32 9 -9z m726 -79 c-20 -20 -21 -20 -21 -2 0 11 3 27 6 36 6 15 9 15 21
2 13 -13 13 -17 -6 -36z m-1 -71 c0 -5 -4 -10 -10 -10 -5 0 -10 5 -10 10 0 6
5 10 10 10 6 0 10 -4 10 -10z m20 -75 c0 -8 -4 -15 -10 -15 -5 0 -10 7 -10 15
0 8 5 15 10 15 6 0 10 -7 10 -15z m7390 -815 c-12 -16 -31 -32 -44 -36 -12 -3
-35 -19 -50 -35 -16 -16 -36 -29 -45 -27 -9 1 -20 0 -26 -3 -14 -9 -85 -21
-85 -15 0 2 22 20 49 40 32 24 60 36 81 36 24 0 43 11 83 50 55 52 77 46 37
-10z m-837 -123 c4 3 7 4 7 0 0 -3 -21 -21 -46 -39 -46 -33 -80 -81 -69 -98 6
-10 110 -8 135 3 8 4 35 13 60 21 25 7 53 17 63 21 14 6 17 2 17 -21 0 -16 9
-63 20 -104 11 -41 20 -100 20 -130 0 -31 7 -63 15 -74 8 -11 12 -31 9 -50 -7
-37 -41 -148 -60 -193 -8 -17 -14 -37 -14 -45 0 -7 -14 -37 -30 -67 -17 -30
-30 -61 -30 -70 0 -9 -7 -25 -15 -35 -8 -11 -15 -25 -15 -32 0 -7 -29 -61 -65
-120 -61 -100 -85 -156 -85 -195 0 -9 -7 -22 -15 -29 -13 -11 -19 -9 -36 9
-12 12 -24 21 -27 19 -46 -23 -121 -57 -135 -62 -21 -7 -15 -43 9 -62 8 -6 14
-20 13 -30 0 -11 -3 -13 -6 -6 -9 23 -23 12 -23 -18 0 -16 -5 -30 -10 -30 -6
0 -4 -10 4 -22 8 -13 17 -42 21 -65 4 -24 11 -45 16 -49 5 -3 9 -17 9 -31 0
-24 -2 -25 -53 -20 -78 6 -119 33 -211 136 -35 39 -42 35 -23 -12 8 -19 11
-40 7 -46 -5 -9 -9 -9 -13 3 -10 24 -27 19 -27 -8 0 -13 -9 -30 -20 -37 -14
-9 -26 -37 -36 -79 -13 -58 -26 -79 -46 -80 -5 0 -8 40 -8 89 0 81 2 91 28
124 15 20 42 61 60 92 21 34 38 53 45 48 8 -5 7 -8 -2 -11 -14 -5 58 -74 102
-98 26 -14 27 -14 27 11 0 14 -7 28 -15 31 -22 9 -18 24 5 24 11 0 20 4 20 9
0 5 -9 13 -20 16 -22 7 -27 25 -7 25 6 -1 23 -7 37 -15 24 -14 100 -21 100 -9
0 3 -5 14 -10 24 -6 11 -17 61 -25 112 -8 51 -17 104 -19 118 -3 14 -10 57
-16 95 -6 39 -15 83 -22 98 -6 15 -8 31 -4 34 13 13 39 -26 38 -56 0 -21 3
-28 13 -25 8 3 46 -2 85 -12 67 -16 71 -19 67 -41 -4 -24 24 -63 46 -63 11 0
4 59 -14 118 -12 38 -12 45 2 55 37 27 27 94 -32 224 -10 24 -19 47 -19 53 0
5 -13 38 -30 72 -16 34 -28 64 -25 67 9 8 106 -30 154 -61 25 -15 50 -28 56
-28 16 0 35 36 30 61 -6 30 -59 135 -93 184 -15 22 -40 70 -55 107 -21 54 -25
73 -17 93 9 24 8 26 -10 20 -16 -5 -20 -2 -20 18 0 14 -7 41 -15 61 -8 20 -16
39 -16 43 -1 5 -5 16 -11 26 -9 17 -6 18 44 12 63 -8 120 -7 168 4 19 4 40 4
46 -1 6 -4 14 -5 17 -1z m367 9 c0 -3 -4 -8 -10 -11 -5 -3 -10 -1 -10 4 0 6 5
11 10 11 6 0 10 -2 10 -4z m-85 -58 c-7 -24 -17 -79 -23 -123 -17 -139 -31
-173 -33 -79 -2 68 -4 88 -13 129 -5 25 -1 38 21 67 15 20 35 39 43 41 8 3 16
5 17 6 1 0 -4 -18 -12 -41z m-7870 -158 c31 -59 146 -184 266 -290 101 -89
232 -222 267 -270 55 -77 118 -218 183 -410 l62 -185 1 -145 c1 -151 -13 -546
-20 -568 -2 -7 -32 18 -71 60 -100 105 -276 278 -284 278 -4 0 -71 63 -148
139 -126 125 -241 270 -241 304 0 6 -6 18 -14 26 -16 18 -69 166 -94 261 -17
69 -22 229 -9 315 4 28 19 82 33 120 49 133 53 204 19 349 -8 33 -15 69 -15
78 0 17 1 17 21 0 11 -9 31 -37 44 -62z m6665 -201 c0 -6 -4 -7 -10 -4 -5 3
-10 11 -10 16 0 6 5 7 10 4 6 -3 10 -11 10 -16z m-5458 -41 c-17 -17 -25 -3
-17 29 l7 28 11 -23 c7 -16 7 -26 -1 -34z m728 -258 c0 -5 -4 -10 -10 -10 -5
0 -10 5 -10 10 0 6 5 10 10 10 6 0 10 -4 10 -10z m5713 -506 c1 -10 6 -25 10
-32 5 -7 2 -14 -7 -18 -9 -3 -16 -15 -16 -26 0 -10 5 -16 10 -13 6 4 10 -5 10
-19 0 -30 -14 -34 -29 -8 -8 14 -10 10 -11 -19 0 -52 -17 -133 -35 -171 -28
-59 -46 -88 -54 -88 -8 0 -41 -60 -41 -74 0 -19 99 107 105 133 4 17 10 31 14
31 13 0 32 -118 25 -158 -4 -24 -2 -42 4 -46 14 -8 4 -256 -11 -274 -10 -13
-2 -30 9 -19 4 3 10 48 15 99 5 51 13 111 19 133 13 56 22 129 24 200 1 35 12
88 25 123 22 58 22 63 7 87 -9 14 -23 25 -31 25 -17 0 -20 35 -5 45 15 9 114
-79 150 -133 18 -28 30 -59 31 -81 0 -20 3 -29 6 -21 4 8 27 35 53 60 27 26
60 72 78 110 23 48 31 58 31 40 1 -34 -34 -109 -54 -116 -8 -3 -15 -14 -15
-24 0 -11 -4 -21 -10 -25 -5 -3 -7 -12 -4 -19 3 -8 -4 -34 -15 -59 -12 -25
-21 -52 -21 -58 0 -10 -3 -10 -12 -1 -7 7 -16 12 -21 12 -10 0 -9 -14 18 -205
29 -207 19 -284 -56 -439 -71 -145 -114 -219 -225 -388 -60 -91 -117 -180
-126 -197 -24 -44 -38 -38 -38 15 0 58 -25 158 -52 206 -24 42 -82 92 -131
113 -146 61 -345 -5 -420 -140 -14 -24 -28 -58 -32 -75 -4 -17 -13 -44 -21
-60 -17 -34 -13 -44 43 -121 73 -99 142 -164 238 -227 55 -36 102 -67 105 -69
6 -5 -154 -158 -196 -189 -16 -11 -72 -49 -124 -84 -52 -35 -107 -75 -122 -88
-15 -14 -30 -23 -33 -20 -5 5 66 150 85 172 18 22 70 171 70 200 0 42 -43 236
-52 236 -4 0 -10 -12 -13 -27 -4 -16 -10 -36 -16 -45 -5 -10 -9 -24 -9 -32 0
-22 -49 -126 -59 -126 -6 0 -31 -18 -58 -40 -90 -74 -108 -87 -140 -103 -17
-9 -33 -20 -35 -25 -1 -5 -15 -15 -29 -23 -14 -8 -59 -36 -99 -64 -109 -74
-124 -83 -136 -84 -7 -1 -10 41 -8 127 2 204 -11 240 -51 128 -29 -82 -33 -80
-81 29 -15 33 -33 75 -41 94 -14 30 -13 54 5 231 10 108 25 207 32 220 12 23
13 22 31 -26 10 -27 26 -89 35 -139 18 -106 28 -135 48 -135 21 0 36 32 36 75
0 59 41 118 70 100 4 -3 15 -39 25 -80 25 -114 39 -96 33 42 -5 100 -8 119
-25 133 -11 8 -19 24 -17 34 1 10 -1 26 -6 35 -23 46 -25 76 -8 110 9 18 19
38 20 42 5 15 119 -20 145 -44 29 -27 96 -155 88 -168 -10 -14 15 -10 31 5 8
8 14 19 14 25 0 6 6 11 13 11 11 0 47 68 47 89 0 5 4 11 9 13 4 2 20 42 34 90
20 67 38 105 82 165 32 43 62 83 69 88 45 41 126 178 176 300 21 51 25 76 25
165 0 58 -3 119 -8 135 l-7 30 22 -30 c13 -16 32 -39 43 -51 11 -11 21 -30 22
-42 1 -12 27 -55 57 -96 48 -65 59 -74 81 -70 16 3 25 0 25 -9 0 -7 14 -34 30
-60 17 -26 30 -56 30 -67 0 -23 18 -36 44 -31 10 1 22 -2 25 -8 4 -6 22 -1 48
14 48 29 82 92 89 169 3 28 8 58 11 66 4 8 5 19 4 23 -1 5 6 36 15 69 15 51
15 61 3 69 -11 7 -16 -4 -23 -51 -10 -65 -16 -72 -31 -37 -6 12 -27 30 -47 40
-21 10 -38 23 -38 27 0 5 11 29 24 52 30 55 103 225 110 258 3 14 10 43 16 65
6 22 13 49 15 60 7 29 27 76 31 72 2 -2 5 -12 7 -23z m-3352 -80 c8 -5 22 -10
32 -11 47 -8 192 -89 210 -119 4 -7 14 -20 22 -28 8 -8 15 -17 15 -19 0 -11
-129 2 -164 17 -52 22 -58 20 -16 -5 30 -19 32 -23 17 -28 -17 -6 -16 -8 7
-21 32 -17 34 -35 4 -26 -55 16 -219 30 -245 20 -36 -12 -31 -30 7 -26 19 2
30 -1 30 -9 0 -18 -240 -6 -310 16 -65 20 -89 37 -34 24 22 -4 50 -8 64 -8 20
0 18 3 -15 15 -22 9 -53 23 -69 31 -27 15 -30 15 -43 -2 -7 -11 -13 -14 -13
-7 0 35 109 121 173 136 18 4 25 11 21 19 -5 9 -4 9 5 1 7 -7 21 -9 32 -7 27
7 24 22 -3 17 -13 -2 2 5 32 16 43 16 73 19 141 16 48 -2 93 -7 100 -12z
m3023 -159 c-4 -8 -8 -15 -10 -15 -2 0 -4 7 -4 15 0 8 4 15 10 15 5 0 7 -7 4
-15z m306 -39 c0 -3 -4 -8 -10 -11 -5 -3 -10 -1 -10 4 0 6 5 11 10 11 6 0 10
-2 10 -4z m-3345 -36 c3 -5 17 -10 30 -10 13 0 26 -4 29 -8 3 -5 -5 -7 -17 -6
-12 1 -38 3 -57 3 -25 1 -31 4 -21 10 11 7 7 10 -15 14 -26 4 -25 4 8 6 20 0
40 -3 43 -9z m135 -30 c12 -8 12 -10 -5 -9 -11 0 -29 4 -40 9 -18 8 -18 9 5 9
14 0 32 -4 40 -9z m2382 -316 c2 -19 1 -37 -3 -39 -3 -3 -9 -29 -13 -59 -3
-31 -11 -68 -17 -83 -60 -148 -67 -161 -84 -160 -12 1 -21 -9 -28 -28 -5 -16
-19 -41 -31 -55 -12 -14 -32 -49 -45 -77 l-24 -52 -28 35 c-16 20 -31 44 -34
55 -7 21 20 115 36 125 5 3 21 29 35 57 27 53 63 107 77 118 5 4 14 15 20 26
32 54 68 103 77 103 5 0 16 16 24 35 19 45 33 45 38 -1z m-4951 -11 c-10 -17
-10 -16 -11 3 0 23 13 41 18 25 2 -6 -1 -18 -7 -28z m5429 -3 c0 -5 -4 -10
-10 -10 -5 0 -10 5 -10 10 0 6 5 10 10 10 6 0 10 -4 10 -10z m-5383 -97 c4
-11 -26 -27 -35 -19 -2 3 -2 12 2 21 6 18 27 16 33 -2z m833 -45 c0 -13 -23
-5 -28 10 -2 7 2 10 12 6 9 -3 16 -11 16 -16z m2065 -58 c-8 -13 -111 -42
-133 -37 -12 3 -8 6 13 11 17 4 48 14 70 21 50 17 58 18 50 5z m-522 -25 c42
-8 114 -24 160 -34 122 -29 149 -34 184 -35 17 -1 34 -4 38 -7 15 -15 -67 -18
-203 -6 -228 19 -456 16 -514 -6 -54 -21 -86 -19 -101 4 -18 29 -1 49 42 49
22 0 41 -5 43 -11 2 -7 18 -5 48 6 174 62 182 63 303 40z m364 -11 c-3 -3 -12
-4 -19 -1 -8 3 -5 6 6 6 11 1 17 -2 13 -5z m-937 -114 c12 -8 11 -10 -7 -10
-13 0 -23 5 -23 10 0 13 11 13 30 0z m1032 -77 c26 -43 55 -105 64 -138 21
-71 23 -213 5 -267 -22 -67 -2 -63 71 14 l70 73 14 -33 c17 -40 26 -36 44 18
14 43 36 68 48 55 12 -12 6 -205 -7 -218 -6 -6 -11 -21 -11 -34 0 -13 -7 -26
-15 -29 -8 -4 -15 -12 -15 -19 0 -6 -11 -25 -24 -40 -14 -16 -28 -40 -31 -54
-3 -14 -24 -52 -46 -84 -21 -32 -39 -64 -39 -71 0 -8 -4 -16 -10 -18 -9 -3
-18 -35 -37 -130 -3 -15 -8 -26 -12 -24 -3 3 -15 -17 -24 -42 -20 -52 -19 -50
-71 -145 -20 -38 -46 -79 -59 -91 -12 -13 -51 -53 -86 -90 -35 -36 -69 -66
-77 -66 -7 0 -17 -6 -21 -13 -4 -8 -20 -22 -35 -32 -16 -9 -28 -23 -28 -31 0
-19 -40 -44 -72 -44 -15 0 -39 -5 -52 -12 -67 -30 -166 44 -284 211 -134 191
-282 450 -282 494 0 37 27 13 64 -58 39 -73 134 -181 186 -209 134 -73 123
-71 285 -71 132 0 158 3 215 23 36 13 83 35 105 50 66 43 151 139 170 190 10
26 31 74 46 107 28 60 56 169 66 256 l5 46 -36 -2 c-20 -2 -42 -9 -50 -17 -8
-7 -33 -26 -55 -42 -23 -17 -41 -38 -41 -47 0 -10 -4 -20 -8 -23 -5 -3 -9 -27
-11 -54 -2 -56 -31 -144 -61 -184 -11 -15 -20 -30 -20 -33 0 -5 -19 -27 -68
-78 -29 -30 -92 -67 -115 -67 -8 0 -28 -7 -45 -15 -23 -12 -50 -15 -103 -11
-69 5 -170 33 -177 49 -2 4 -9 7 -16 7 -25 0 -88 65 -126 131 -23 38 -45 69
-50 69 -28 0 -164 251 -175 323 -3 23 -10 51 -14 62 -21 50 -67 307 -58 322 7
11 85 8 134 -6 44 -12 66 -32 44 -39 -9 -3 -8 -9 4 -22 9 -10 15 -21 14 -26
-4 -17 25 -65 36 -60 16 6 55 -85 55 -127 1 -17 8 -43 16 -57 l15 -25 -5 25
c-3 14 -8 45 -12 70 -12 85 -53 239 -74 281 -29 56 -17 66 88 73 l82 6 38 -34
c20 -18 47 -39 60 -45 33 -17 95 -5 122 24 13 14 38 29 56 35 19 7 34 15 34
20 0 5 20 12 44 15 80 12 106 -20 130 -158 16 -88 21 -278 10 -361 -5 -36 -4
-47 5 -42 6 4 11 13 11 20 0 7 11 22 25 34 14 12 25 28 25 35 0 7 9 32 20 55
30 62 40 127 48 322 8 166 13 200 31 200 4 0 28 -35 53 -77z m-917 37 c3 -5
-1 -10 -9 -10 -10 0 -13 -6 -10 -15 4 -8 4 -15 1 -15 -9 0 -37 31 -37 41 0 12
47 12 55 -1z m-295 -217 c6 -32 15 -76 21 -98 41 -160 60 -274 40 -245 -7 9
-11 10 -11 3 0 -6 5 -15 11 -18 15 -10 1 -83 -25 -121 -18 -29 -63 -64 -80
-64 -3 0 -6 10 -6 23 0 12 -7 44 -15 71 -8 28 -15 88 -15 138 0 56 -4 88 -11
88 -6 0 -3 7 6 16 9 9 15 26 14 38 -3 32 12 117 27 155 8 18 14 42 14 52 0 41
19 16 30 -38z m-1072 -18 c-3 -3 -9 2 -12 12 -6 14 -5 15 5 6 7 -7 10 -15 7
-18z m3827 -215 c-3 -5 -1 -10 6 -10 11 0 49 -37 49 -48 0 -2 -12 3 -26 13
-14 9 -32 14 -39 11 -17 -6 -30 10 -15 19 6 4 8 11 5 16 -4 5 1 9 10 9 9 0 13
-4 10 -10z m-1136 -193 c-5 -20 -14 -39 -19 -42 -5 -3 -2 15 7 40 18 54 27 55
12 2z m-1889 -77 c0 -5 -4 -10 -10 -10 -5 0 -10 5 -10 10 0 6 5 10 10 10 6 0
10 -4 10 -10z m4385 -121 c24 -22 33 -35 26 -42 -26 -26 -155 -26 -203 0 -22
11 -50 16 -84 14 -30 -1 -55 2 -58 8 -5 7 2 11 17 11 41 0 87 12 81 21 -3 5 6
9 20 9 14 0 26 -5 26 -10 0 -6 14 -4 33 4 56 25 102 20 142 -15z m-4902 -11
c26 -20 33 -99 12 -132 -33 -50 -45 -34 -45 59 0 47 4 85 8 85 5 0 16 -6 25
-12z m4567 -18 c0 -5 -4 -10 -9 -10 -6 0 -13 5 -16 10 -3 6 1 10 9 10 9 0 16
-4 16 -10z m-4395 -1080 c-3 -5 -12 -7 -20 -3 -21 7 -19 13 6 13 11 0 18 -4
14 -10z m83 -4 c3 -3 -9 -6 -26 -6 -17 0 -34 5 -37 11 -7 11 51 6 63 -5z m60
-3 c-10 -2 -26 -2 -35 0 -10 3 -2 5 17 5 19 0 27 -2 18 -5z m2551 -226 c1 -5
-3 -6 -9 -2 -5 3 -18 -11 -29 -32 -12 -23 -20 -31 -21 -20 0 10 10 37 21 60
19 37 23 40 30 22 4 -11 8 -24 8 -28z m-1622 -1203 c-3 -3 -12 -4 -19 -1 -8 3
-5 6 6 6 11 1 17 -2 13 -5z"/>
<path d="M4530 14619 c0 -5 5 -7 10 -4 6 3 10 8 10 11 0 2 -4 4 -10 4 -5 0
-10 -5 -10 -11z"/>
<path d="M3680 13931 c0 -5 5 -13 10 -16 6 -3 10 -2 10 4 0 5 -4 13 -10 16 -5
3 -10 2 -10 -4z"/>
<path d="M4037 13799 c12 -12 25 -20 28 -17 3 3 -7 13 -22 23 l-28 17 22 -23z"/>
<path d="M4805 13660 c3 -5 11 -10 16 -10 6 0 7 5 4 10 -3 6 -11 10 -16 10 -6
0 -7 -4 -4 -10z"/>
<path d="M4020 13514 c0 -19 6 -34 15 -38 19 -7 19 11 0 44 l-14 25 -1 -31z"/>
<path d="M4096 13335 c4 -8 8 -15 10 -15 2 0 4 7 4 15 0 8 -4 15 -10 15 -5 0
-7 -7 -4 -15z"/>
<path d="M5341 11434 c0 -11 3 -14 6 -6 3 7 2 16 -1 19 -3 4 -6 -2 -5 -13z"/>
<path d="M5352 11395 c0 -11 4 -33 8 -50 l8 -30 0 30 c0 17 -3 39 -8 50 l-9
20 1 -20z"/>
<path d="M5371 11294 c0 -11 3 -14 6 -6 3 7 2 16 -1 19 -3 4 -6 -2 -5 -13z"/>
<path d="M6290 10670 c0 -5 5 -10 11 -10 5 0 7 5 4 10 -3 6 -8 10 -11 10 -2 0
-4 -4 -4 -10z"/>
<path d="M6340 10575 c0 -8 8 -11 20 -8 11 3 20 7 20 8 0 1 -9 5 -20 8 -12 3
-20 0 -20 -8z"/>
<path d="M6370 10515 c0 -8 4 -15 10 -15 5 0 7 7 4 15 -4 8 -8 15 -10 15 -2 0
-4 -7 -4 -15z"/>
<path d="M4212 15200 c7 -10 14 -18 15 -16 6 6 -9 36 -18 36 -5 0 -4 -9 3 -20z"/>
<path d="M5900 14742 c0 -5 3 -12 7 -15 3 -4 19 -35 34 -70 16 -34 29 -54 29
-44 0 10 -14 44 -30 77 -28 56 -40 71 -40 52z"/>
<path d="M5980 14455 c0 -15 18 -40 24 -34 3 3 -1 14 -9 25 -8 10 -14 15 -15
9z"/>
<path d="M5201 14432 c-17 -31 -13 -40 5 -14 9 13 14 26 11 29 -3 2 -10 -4
-16 -15z"/>
<path d="M6007 14295 c3 -60 6 -114 8 -120 7 -20 2 171 -5 200 -3 17 -5 -19
-3 -80z"/>
<path d="M6005 14149 c-4 -6 -5 -12 -2 -15 2 -3 7 2 10 11 7 17 1 20 -8 4z"/>
<path d="M5605 13840 c-3 -5 -1 -10 4 -10 6 0 11 5 11 10 0 6 -2 10 -4 10 -3
0 -8 -4 -11 -10z"/>
<path d="M5555 13600 c-3 -5 -1 -10 4 -10 6 0 11 5 11 10 0 6 -2 10 -4 10 -3
0 -8 -4 -11 -10z"/>
<path d="M5507 13563 c-27 -48 -67 -123 -67 -127 0 -2 11 1 24 7 13 7 22 15
20 19 -3 4 5 28 16 54 12 25 19 48 17 51 -3 2 -7 1 -10 -4z"/>
<path d="M4516 10973 c-11 -59 0 -124 40 -235 45 -125 43 -301 -6 -513 -8 -34
-6 -57 3 -44 2 2 21 31 42 64 22 33 42 62 45 65 17 17 51 116 61 178 16 104 6
153 -39 200 -79 82 -121 164 -131 259 l-7 68 -8 -42z"/>
<path d="M4357 10842 c-8 -9 -21 -37 -28 -62 -8 -25 -34 -76 -60 -115 -25 -38
-62 -95 -81 -125 -84 -133 -101 -157 -140 -202 -22 -26 -45 -48 -50 -48 -5 0
-28 9 -50 20 -45 22 -83 26 -93 10 -4 -6 9 -10 33 -10 30 0 45 -7 68 -31 24
-25 35 -30 61 -26 59 10 60 -11 9 -118 -25 -52 -50 -95 -56 -95 -6 0 -18 -16
-27 -35 -9 -19 -22 -35 -28 -35 -16 0 -54 84 -61 133 -3 23 -6 68 -6 99 -1 31
-5 55 -10 52 -4 -3 -8 -11 -8 -19 0 -7 -17 -47 -39 -89 -21 -42 -41 -84 -44
-93 -32 -114 -46 -176 -48 -213 -1 -25 -6 -50 -10 -56 -14 -18 -19 -180 -9
-280 11 -104 28 -144 85 -197 40 -38 74 -55 123 -63 46 -7 39 -12 121 86 118
141 240 271 375 398 52 50 101 85 154 111 109 54 134 69 223 134 87 64 114
102 106 154 -6 37 -2 40 25 16 24 -22 36 -8 14 16 -17 19 -17 20 6 34 12 8 49
20 81 27 31 6 57 17 57 23 0 15 -91 67 -116 67 -9 0 -25 -7 -35 -16 -9 -8 -47
-21 -83 -27 -36 -6 -66 -15 -66 -19 0 -4 -17 -18 -37 -32 -21 -13 -61 -45 -89
-72 -27 -27 -66 -63 -85 -80 -18 -17 -44 -45 -57 -63 -17 -22 -40 -36 -85 -50
-60 -19 -63 -19 -81 -1 -17 17 -18 22 -6 52 7 18 23 44 36 58 38 42 74 137 87
227 7 49 18 88 25 91 7 2 12 0 12 -5 0 -5 7 -18 15 -29 8 -10 15 -14 14 -9 -1
6 0 17 4 25 18 49 23 124 12 173 -17 69 -19 74 -85 209 -53 109 -58 116 -73
100z"/>
<path d="M5077 9981 c-2 -10 -16 -26 -29 -35 -23 -15 -30 -15 -92 4 -37 12
-75 19 -85 15 -52 -16 -116 -168 -123 -293 -4 -60 -3 -65 20 -73 13 -5 38 -9
57 -9 19 0 37 -4 40 -10 8 -12 -27 -13 -80 0 -44 10 -58 4 -34 -13 9 -7 14
-18 12 -24 -3 -7 1 -13 9 -13 8 -1 6 -6 -6 -15 -17 -13 -18 -23 -12 -82 4 -37
11 -81 16 -98 5 -16 17 -55 26 -85 8 -30 22 -68 29 -85 47 -107 125 -309 125
-324 0 -10 3 -21 8 -25 4 -4 7 -11 8 -14 2 -24 30 -100 41 -113 10 -12 35 -18
83 -21 38 -2 71 -6 75 -9 3 -3 1 -39 -5 -80 -10 -69 -5 -337 7 -349 3 -3 20
12 37 34 26 30 38 37 54 32 32 -11 36 12 7 49 -34 46 -55 107 -55 164 1 39 2
43 12 26 6 -11 14 -22 18 -25 3 -3 16 -21 28 -42 12 -20 29 -39 37 -42 8 -3
15 -13 15 -21 0 -26 110 -153 175 -202 30 -23 75 -31 75 -13 0 6 -4 10 -10 10
-14 0 -101 88 -130 132 -14 21 -28 38 -32 38 -5 0 -8 6 -8 13 0 7 -13 31 -30
53 -16 21 -30 42 -30 47 0 4 -15 29 -33 55 -29 42 -87 147 -87 158 0 2 9 -1
19 -8 16 -10 23 -9 39 5 10 9 24 17 30 17 17 0 69 48 92 85 52 84 103 425 77
517 -11 39 -64 88 -95 88 -58 -1 -128 -28 -167 -63 -44 -40 -98 -80 -132 -98
-19 -10 -26 -6 -65 31 -23 23 -81 72 -127 108 -70 55 -81 67 -68 77 9 6 19 24
23 39 6 25 5 27 -20 20 -16 -4 -26 -2 -26 5 0 6 8 11 19 11 31 0 81 21 81 35
0 7 16 23 34 35 37 22 51 50 47 89 -2 18 1 22 13 18 12 -5 16 0 16 15 0 30 17
82 51 155 28 60 47 123 36 123 -2 0 -7 -9 -10 -19z"/>
<path d="M5053 9832 c-13 -25 -20 -49 -15 -53 4 -4 17 15 29 42 28 62 15 72
-14 11z"/>
<path d="M6105 9800 c-3 -5 -1 -10 4 -10 6 0 11 5 11 10 0 6 -2 10 -4 10 -3 0
-8 -4 -11 -10z"/>
<path d="M5531 9244 c0 -11 3 -14 6 -6 3 7 2 16 -1 19 -3 4 -6 -2 -5 -13z"/>
<path d="M5546 9205 c13 -43 16 -63 26 -134 11 -82 5 -133 -17 -151 -18 -15
-10 -30 16 -30 27 0 38 34 41 126 3 63 0 77 -14 85 -10 6 -18 18 -18 27 0 9
-9 35 -20 57 -11 22 -18 31 -14 20z"/>
<path d="M4220 8868 c0 -123 -9 -239 -18 -251 -6 -7 -9 -17 -5 -20 3 -4 2 -7
-3 -7 -5 0 -16 -21 -23 -47 -18 -62 -35 -87 -97 -148 -28 -27 -54 -60 -58 -72
-4 -13 -11 -23 -16 -23 -15 0 -44 -90 -32 -102 13 -13 64 21 57 39 -2 7 0 15
5 18 5 3 10 -5 12 -17 3 -21 7 -23 63 -20 34 1 94 15 140 31 44 16 96 34 115
41 52 19 65 27 62 39 -1 6 1 11 5 11 5 1 53 8 108 16 148 23 237 19 342 -15
48 -15 101 -31 116 -35 l28 -7 -16 28 c-16 28 -65 95 -143 197 -23 30 -48 68
-54 83 -32 73 -138 215 -138 185 0 -7 5 -12 10 -12 6 0 10 -6 10 -13 0 -7 9
-30 20 -52 11 -22 20 -45 20 -51 0 -7 7 -14 15 -18 8 -3 15 -13 16 -23 0 -10
9 -31 20 -48 10 -16 21 -37 25 -45 3 -8 11 -26 19 -40 7 -14 17 -42 23 -62
l10 -38 -34 5 c-19 2 -39 7 -44 10 -5 3 -38 8 -73 10 -163 11 -301 114 -388
290 -24 48 -53 105 -63 126 -11 22 -23 39 -28 39 -4 0 -8 -1 -8 -2z"/>
<path d="M6030 8506 c0 -3 13 -12 29 -21 30 -15 49 -6 35 16 -5 8 -9 8 -14 -1
-6 -9 -13 -9 -29 -1 -11 7 -21 9 -21 7z"/>
<path d="M5059 8444 c-7 -15 -3 -107 6 -139 11 -44 45 -78 62 -63 15 12 12 37
-14 123 -16 49 -47 95 -54 79z"/>
<path d="M5683 8338 c9 -15 17 -34 17 -41 0 -20 40 -68 50 -62 12 7 90 -32 90
-45 0 -5 10 -15 23 -21 l22 -12 -20 23 c-15 18 -16 22 -4 18 9 -4 21 -3 28 2
9 5 4 9 -14 14 -14 4 -30 4 -35 1 -6 -4 -10 -2 -10 4 0 5 -26 30 -57 55 -32
25 -69 56 -82 68 l-24 23 16 -27z"/>
<path d="M5305 8320 c-3 -5 -2 -10 4 -10 5 0 13 5 16 10 3 6 2 10 -4 10 -5 0
-13 -4 -16 -10z"/>
<path d="M4040 8075 l-45 -13 48 0 c26 0 50 4 52 9 10 15 -10 16 -55 4z"/>
<path d="M2821 11174 c0 -11 3 -14 6 -6 3 7 2 16 -1 19 -3 4 -6 -2 -5 -13z"/>
<path d="M7523 11118 c-19 -24 -34 -82 -48 -183 -7 -55 -16 -108 -20 -117 -4
-10 -3 -18 2 -18 14 0 63 82 74 125 6 22 15 50 20 63 22 57 0 165 -28 130z"/>
<path d="M2726 9123 c-6 -14 -5 -15 5 -6 7 7 10 15 7 18 -3 3 -9 -2 -12 -12z"/>
<path d="M2735 9011 c-3 -5 -1 -12 5 -16 5 -3 10 1 10 9 0 18 -6 21 -15 7z"/>
<path d="M2731 8954 c0 -11 3 -14 6 -6 3 7 2 16 -1 19 -3 4 -6 -2 -5 -13z"/>
<path d="M2400 8165 c0 -154 -3 -298 -7 -319 -4 -28 -3 -37 5 -32 7 4 12 33
12 70 0 35 4 85 9 112 18 91 10 417 -10 439 -5 5 -9 -107 -9 -270z"/>
<path d="M2371 7644 c0 -11 3 -14 6 -6 3 7 2 16 -1 19 -3 4 -6 -2 -5 -13z"/>
<path d="M2357 7577 c-4 -10 -7 -26 -7 -35 1 -15 2 -15 11 1 6 10 9 25 7 35
-3 16 -4 15 -11 -1z"/>
<path d="M6580 6880 c0 -5 5 -10 11 -10 5 0 7 5 4 10 -3 6 -8 10 -11 10 -2 0
-4 -4 -4 -10z"/>
<path d="M3800 6653 c1 -21 40 -54 150 -127 19 -13 55 -47 80 -76 25 -29 58
-67 73 -84 15 -17 35 -47 44 -66 21 -43 63 -112 78 -125 6 -5 22 -28 35 -50
25 -42 40 -56 51 -50 11 7 36 -28 48 -67 14 -43 29 -56 42 -37 11 17 3 73 -11
77 -6 2 -8 8 -5 13 9 13 -33 145 -50 159 -8 7 -15 18 -15 24 0 6 -16 29 -35
51 -19 22 -35 43 -35 47 0 5 -7 16 -15 26 -9 9 -40 46 -69 81 -52 61 -153 141
-206 163 -107 44 -160 58 -160 41z"/>
<path d="M5694 6596 c-106 -60 -144 -88 -208 -152 -82 -82 -169 -233 -191
-332 -6 -29 -4 -32 17 -32 27 0 90 59 107 100 15 34 29 56 76 117 22 29 51 67
64 85 14 18 60 65 103 103 44 39 87 77 97 86 9 9 27 22 39 28 27 14 30 52 5
50 -10 -1 -59 -25 -109 -53z"/>
<path d="M3195 6067 c-91 -11 -100 -14 -103 -34 -2 -14 4 -26 20 -34 34 -17
186 -136 233 -180 22 -21 73 -66 113 -100 39 -34 72 -66 72 -70 0 -5 7 -9 15
-9 9 0 26 -10 39 -23 12 -12 31 -23 42 -24 10 -1 55 -11 100 -22 75 -20 92
-20 235 -11 188 13 201 14 264 24 54 8 128 52 133 78 2 9 -12 31 -31 49 -19
19 -58 63 -86 99 -64 80 -118 124 -179 146 -26 9 -65 25 -87 35 -44 19 -113
39 -160 45 -16 2 -43 7 -60 11 -16 4 -34 6 -39 4 -5 -1 -32 3 -60 8 -79 16
-350 21 -461 8z m371 -201 c27 -12 62 -26 78 -30 37 -9 92 -66 101 -104 4 -20
14 -31 37 -38 46 -13 48 -34 4 -34 -24 0 -39 5 -43 15 -3 9 -20 23 -37 32 -28
14 -98 75 -148 128 -62 66 -62 65 8 31z"/>
<path d="M6240 6069 c-102 -8 -256 -39 -327 -66 -31 -11 -145 -43 -213 -59
-36 -8 -72 -19 -81 -24 -9 -5 -59 -16 -110 -25 -52 -10 -101 -24 -110 -31 -9
-8 -22 -33 -30 -57 -7 -23 -22 -56 -32 -74 -11 -19 -16 -41 -12 -52 7 -23 85
-55 160 -65 28 -4 86 -18 130 -31 175 -52 387 -90 425 -77 66 24 305 187 415
283 122 107 158 134 228 169 44 22 86 40 93 40 24 0 15 17 -13 28 -114 45
-300 59 -523 41z m-80 -266 c0 -21 -15 -41 -60 -81 -50 -45 -70 -55 -122 -66
-105 -22 -100 -1 15 63 40 21 88 55 107 75 42 43 60 45 60 9z"/>
<path d="M3653 5109 c-16 -16 5 -72 42 -112 l33 -34 36 33 c49 45 50 84 1 107
-40 19 -96 22 -112 6z"/>
<path d="M4068 4894 c-13 -12 6 -45 36 -63 80 -50 316 -328 316 -374 0 -5 7
-4 15 3 20 17 19 34 -7 111 -21 64 -44 100 -107 171 -39 43 -148 119 -205 142
-44 18 -41 18 -48 10z"/>
<path d="M1938 4500 c3 -72 1 -100 -7 -100 -7 0 -30 -38 -53 -85 -22 -47 -44
-85 -49 -85 -5 0 -9 -17 -9 -39 0 -22 -6 -44 -15 -51 -27 -22 -13 -80 19 -80
6 0 5 5 -2 12 -7 7 -11 23 -11 37 2 25 2 25 6 3 3 -14 10 -22 17 -19 8 3 13
-5 14 -21 4 -64 8 -77 23 -74 9 1 22 -9 29 -23 14 -26 61 -55 89 -55 28 0 86
24 115 48 16 12 42 22 58 22 26 0 28 2 22 28 -4 15 -25 63 -46 107 -22 44 -69
157 -105 250 -85 221 -86 225 -93 225 -3 0 -4 -45 -2 -100z"/>
<path d="M5205 4519 c-4 -6 -5 -12 -2 -15 2 -3 7 2 10 11 7 17 1 20 -8 4z"/>
<path d="M2530 4023 c0 -4 5 -15 10 -23 8 -13 10 -13 10 2 0 9 -4 20 -10 23
-5 3 -10 3 -10 -2z"/>
<path d="M2765 3510 c4 -6 11 -7 17 -4 6 4 8 -1 3 -15 -4 -15 -2 -21 8 -21 9
0 14 6 13 13 -3 21 -17 37 -32 37 -8 0 -12 -5 -9 -10z"/>
<path d="M1936 3315 c-44 -30 -93 -132 -102 -214 -6 -57 4 -201 22 -295 2 -15
1 -33 -4 -40 -12 -15 -14 -98 -3 -115 12 -19 105 -50 166 -56 72 -8 150 33
184 95 52 96 59 310 13 425 -29 71 -50 111 -67 125 -8 7 -15 18 -15 25 0 8
-17 27 -37 45 -31 25 -46 30 -82 28 -25 -1 -57 -11 -75 -23z"/>
<path d="M3240 3225 c0 -9 6 -12 15 -9 8 4 15 10 15 15 0 5 -7 9 -15 9 -8 0
-15 -7 -15 -15z"/>
<path d="M3140 3194 c0 -8 5 -12 10 -9 6 4 8 11 5 16 -9 14 -15 11 -15 -7z"/>
<path d="M3436 2890 c7 -69 21 -142 33 -170 9 -20 11 -11 7 48 -2 40 0 75 4
77 12 7 -1 45 -15 45 -6 0 -17 10 -23 23 -9 18 -10 15 -6 -23z"/>
<path d="M6421 2724 c0 -11 3 -14 6 -6 3 7 2 16 -1 19 -3 4 -6 -2 -5 -13z"/>
<path d="M2606 2694 c-9 -24 -7 -28 9 -14 17 14 20 30 6 30 -5 0 -12 -7 -15
-16z"/>
<path d="M2750 2690 c0 -5 5 -10 11 -10 5 0 7 5 4 10 -3 6 -8 10 -11 10 -2 0
-4 -4 -4 -10z"/>
<path d="M4272 1913 c-24 -2 -45 -10 -48 -17 -3 -7 4 -40 15 -72 12 -32 21
-68 21 -79 0 -25 77 -214 102 -250 26 -38 78 -89 84 -83 4 5 9 65 11 135 3
121 26 291 44 341 8 21 6 22 -34 23 -23 0 -67 1 -97 3 -30 1 -74 1 -98 -1z"/>
<path d="M6481 1664 c0 -11 3 -14 6 -6 3 7 2 16 -1 19 -3 4 -6 -2 -5 -13z"/>
<path d="M4113 908 c-12 -6 -27 -23 -34 -39 -13 -32 -29 -39 -29 -12 0 40 -20
-7 -34 -77 -29 -151 -30 -222 -7 -299 18 -61 28 -76 79 -121 57 -52 57 -52
111 -46 72 9 133 52 160 117 25 57 26 79 5 171 -14 63 -39 125 -79 198 -20 35
-53 60 -81 60 -12 0 -27 7 -32 16 -6 11 -11 13 -16 5 -13 -21 -26 -11 -20 14
7 28 7 28 -23 13z"/>
<path d="M5181 814 c0 -11 3 -14 6 -6 3 7 2 16 -1 19 -3 4 -6 -2 -5 -13z"/>
<path d="M4930 805 c-7 -8 -19 -15 -26 -15 -8 0 -20 -11 -26 -25 -6 -14 -15
-25 -19 -25 -11 0 -44 -74 -53 -116 -13 -61 -15 -169 -3 -217 8 -35 23 -61 55
-93 49 -48 76 -54 113 -25 13 10 38 25 55 34 21 11 42 37 65 81 l34 65 -17 81
c-40 189 -128 315 -178 255z"/>
<path d="M5294 498 c3 -10 8 -26 11 -35 4 -12 9 -13 16 -6 8 8 5 18 -10 35
-17 17 -21 19 -17 6z"/>
<path d="M4528 113 c7 -3 16 -2 19 1 4 3 -2 6 -13 5 -11 0 -14 -3 -6 -6z"/>
<path d="M7012 9010 c0 -14 2 -19 5 -12 2 6 2 18 0 25 -3 6 -5 1 -5 -13z"/>
<path d="M2091 8294 c0 -11 3 -14 6 -6 3 7 2 16 -1 19 -3 4 -6 -2 -5 -13z"/>
<path d="M8697 7373 c-7 -10 39 -60 48 -52 2 3 -6 18 -19 34 -13 16 -26 24
-29 18z"/>
<path d="M8393 7073 c2 -94 4 -106 20 -109 16 -2 18 2 11 39 -4 23 -6 55 -5
71 1 15 -4 35 -10 42 -7 8 -7 14 -2 14 6 0 8 11 5 25 -2 14 -8 25 -13 25 -4 0
-7 -48 -6 -107z"/>
<path d="M8315 6583 c-63 -14 -84 -31 -123 -103 -15 -27 -18 -141 -4 -199 6
-26 17 -39 45 -54 56 -29 118 -33 153 -11 65 40 107 105 103 157 -2 18 1 38 5
45 5 8 2 20 -7 30 -8 9 -27 40 -42 69 -33 63 -68 80 -130 66z"/>
<path d="M9227 5583 c-13 -12 -7 -100 8 -129 8 -16 17 -57 20 -89 12 -123 11
-120 51 -121 l36 -1 -6 61 c-9 81 -42 219 -61 256 -15 29 -34 38 -48 23z"/>
<path d="M9068 5425 c-5 -66 25 -133 85 -187 22 -21 44 -38 49 -38 12 0 10 32
-5 57 -37 65 -79 132 -102 158 -22 27 -25 28 -27 10z"/>
<path d="M3270 9035 c0 -8 2 -15 4 -15 2 0 6 7 10 15 3 8 1 15 -4 15 -6 0 -10
-7 -10 -15z"/>
<path d="M1400 8751 c0 -6 5 -13 10 -16 6 -3 10 1 10 9 0 9 -4 16 -10 16 -5 0
-10 -4 -10 -9z"/>
<path d="M1495 8590 c3 -5 14 -10 23 -10 15 0 15 2 2 10 -20 13 -33 13 -25 0z"/>
<path d="M2122 5710 c0 -19 2 -27 5 -17 2 9 2 25 0 35 -3 9 -5 1 -5 -18z"/>
<path d="M1400 8309 c0 -5 5 -7 10 -4 6 3 10 8 10 11 0 2 -4 4 -10 4 -5 0 -10
-5 -10 -11z"/>
<path d="M8055 5600 c3 -5 13 -10 21 -10 8 0 14 5 14 10 0 6 -9 10 -21 10 -11
0 -17 -4 -14 -10z"/>
<path d="M869 4828 c-56 -45 -64 -213 -15 -311 79 -160 245 -286 378 -287 69
0 112 55 110 141 -1 57 -19 94 -88 181 -159 197 -331 321 -385 276z"/>
<path d="M4725 4460 c-3 -6 1 -7 9 -4 18 7 21 14 7 14 -6 0 -13 -4 -16 -10z"/>
<path d="M4713 4233 c15 -2 37 -2 50 0 12 2 0 4 -28 4 -27 0 -38 -2 -22 -4z"/>
<path d="M4516 3063 c9 -38 14 -42 14 -10 0 14 -5 29 -10 32 -7 4 -8 -3 -4
-22z"/>
<path d="M4528 2988 c7 -7 12 -20 12 -31 0 -22 36 -103 50 -112 18 -11 11 15
-22 86 -17 38 -36 69 -42 69 -6 0 -5 -5 2 -12z"/>
<path d="M4500 2640 c0 -5 5 -10 11 -10 5 0 7 5 4 10 -3 6 -8 10 -11 10 -2 0
-4 -4 -4 -10z"/>
</g>
</svg>
